<svg width="126" height="126" viewBox="0 0 126 126" fill="none" xmlns="http://www.w3.org/2000/svg">
<path d="M87.7027 98.0098L79.4682 117.029H75.124L66.9219 98.0098H71.6767L77.4582 111.593L83.3261 98.0098H87.7027Z" fill="#1A1E3C"/>
<path d="M102.236 98.8537C103.479 99.4156 104.43 100.215 105.1 101.242C105.77 102.279 106.105 103.5 106.105 104.905C106.105 106.299 105.77 107.521 105.1 108.558C104.43 109.595 103.479 110.395 102.236 110.946C100.993 111.497 99.5345 111.778 97.8487 111.778H94.0232V117.019H89.625V98H97.8595C99.5345 98.0108 100.993 98.2918 102.236 98.8537ZM100.626 107.348C101.318 106.775 101.663 105.964 101.663 104.916C101.663 103.846 101.318 103.025 100.626 102.452C99.9344 101.88 98.9294 101.599 97.611 101.599H94.0232V108.201H97.611C98.9294 108.201 99.9344 107.91 100.626 107.348Z" fill="#1A1E3C"/>
<path d="M126.001 98.0117V117.031H122.392L112.915 105.49V117.031H108.57V98.0117H112.212L121.668 109.553V98.0117H126.001Z" fill="#1A1E3C"/>
<path d="M15.3843 103.24V117.03H11.5696V115.441C10.5754 116.64 9.13813 117.235 7.25781 117.235C5.96103 117.235 4.78313 116.943 3.7349 116.36C2.68667 115.776 1.85457 114.955 1.26022 113.874C0.665862 112.793 0.363281 111.551 0.363281 110.135C0.363281 108.719 0.665862 107.466 1.26022 106.396C1.85457 105.315 2.68667 104.494 3.7349 103.91C4.78313 103.327 5.96103 103.035 7.25781 103.035C9.01926 103.035 10.3917 103.586 11.3859 104.699V103.24H15.3843ZM10.4673 112.923C11.1373 112.231 11.4723 111.302 11.4723 110.146C11.4723 108.979 11.1373 108.06 10.4673 107.369C9.79733 106.677 8.96523 106.331 7.94942 106.331C6.92281 106.331 6.0799 106.677 5.4099 107.369C4.7399 108.06 4.41571 108.99 4.41571 110.146C4.41571 111.313 4.75071 112.231 5.4099 112.923C6.0799 113.615 6.92281 113.96 7.94942 113.96C8.96523 113.96 9.79733 113.615 10.4673 112.923Z" fill="#1A1E3C"/>
<path d="M30.6016 98.0117H34.6V117.031H30.6016V98.0117Z" fill="#1A1E3C"/>
<path d="M51.8999 103.24V117.03H48.0852V115.441C47.091 116.64 45.6538 117.235 43.7734 117.235C42.4767 117.235 41.2988 116.943 40.2505 116.36C39.2023 115.776 38.3702 114.955 37.7758 113.874C37.1815 112.793 36.8789 111.551 36.8789 110.135C36.8789 108.719 37.1815 107.466 37.7758 106.396C38.3702 105.315 39.2023 104.494 40.2505 103.91C41.2988 103.327 42.4767 103.035 43.7734 103.035C45.5349 103.035 46.9073 103.586 47.9015 104.699V103.24H51.8999ZM46.983 112.923C47.653 112.231 47.988 111.302 47.988 110.146C47.988 108.979 47.653 108.06 46.983 107.369C46.313 106.677 45.4809 106.331 44.465 106.331C43.4384 106.331 42.5955 106.677 41.9255 107.369C41.2555 108.06 40.9313 108.99 40.9313 110.146C40.9313 111.313 41.2663 112.231 41.9255 112.923C42.5955 113.615 43.4384 113.96 44.465 113.96C45.47 113.96 46.313 113.615 46.983 112.923Z" fill="#1A1E3C"/>
<path d="M57.1308 116.813C56.0393 116.532 55.164 116.176 54.5156 115.754L55.8448 112.88C56.4608 113.269 57.2064 113.593 58.071 113.842C58.9463 114.09 59.8 114.209 60.6321 114.209C62.3287 114.209 63.1716 113.788 63.1716 112.955C63.1716 112.566 62.9447 112.285 62.48 112.113C62.0153 111.94 61.3129 111.799 60.3511 111.68C59.2272 111.507 58.2871 111.313 57.5522 111.086C56.8174 110.859 56.1798 110.47 55.6395 109.908C55.0992 109.346 54.829 108.536 54.829 107.498C54.829 106.623 55.0776 105.856 55.5855 105.175C56.0934 104.505 56.8282 103.975 57.79 103.597C58.7518 103.219 59.8972 103.035 61.2156 103.035C62.1882 103.035 63.1608 103.143 64.1226 103.359C65.0843 103.575 65.884 103.867 66.5216 104.245L65.1924 107.088C63.9821 106.407 62.6529 106.061 61.2156 106.061C60.3619 106.061 59.7243 106.18 59.2921 106.418C58.8598 106.655 58.6545 106.969 58.6545 107.336C58.6545 107.768 58.8814 108.06 59.3461 108.233C59.8108 108.406 60.5456 108.568 61.5506 108.719C62.6745 108.903 63.6039 109.108 64.3171 109.325C65.0303 109.541 65.6571 109.93 66.1866 110.492C66.7161 111.054 66.9863 111.842 66.9863 112.847C66.9863 113.701 66.7269 114.458 66.219 115.128C65.7111 115.798 64.9547 116.316 63.9713 116.684C62.9879 117.051 61.8208 117.235 60.47 117.235C59.3461 117.235 58.2222 117.094 57.1308 116.813Z" fill="#1A1E3C"/>
<path d="M27.4998 113.529C27.0567 113.842 26.4624 114.058 25.8572 114.058C25.3061 114.058 24.8846 113.896 24.5929 113.583C24.2903 113.27 24.139 112.816 24.139 112.232V106.31H27.489V103.23H24.139V98H20.1406V103.23H18.0117V106.31H20.1406V112.286C20.1406 113.907 20.5945 115.139 21.4914 115.982C22.3883 116.825 23.6527 117.236 25.2953 117.236C25.9221 117.236 26.5272 117.16 27.1 117.019C27.2404 116.987 27.3701 116.944 27.489 116.901V113.529H27.4998Z" fill="#1A1E3C"/>
<path d="M62.6862 80.9139C42.8529 80.9139 26.6837 65.0181 26.629 45.4947C26.6107 35.9791 30.293 27.0286 37.0378 20.2838C43.7461 13.5755 52.6602 9.875 62.1575 9.875H62.2487C81.7903 9.92969 97.6861 26.0989 97.6861 45.9322V80.9139H62.6862Z" fill="#378DFF"/>
<path d="M47.7578 70.1777C53.4661 70.1777 58.0937 65.5501 58.0937 59.8418C58.0937 54.1334 53.4661 49.5059 47.7578 49.5059C42.0494 49.5059 37.4219 54.1334 37.4219 59.8418C37.4219 65.5501 42.0494 70.1777 47.7578 70.1777Z" fill="white"/>
<path d="M62.2489 8.16211C62.2124 8.16211 62.1759 8.16211 62.1577 8.16211C52.2046 8.16211 42.8713 12.0267 35.8349 19.0631C28.7802 26.1178 24.8974 35.5058 24.9338 45.4953C24.9885 65.9666 41.9234 82.6281 62.7046 82.6281H99.3998V45.9146C99.3816 25.1516 82.7202 8.19857 62.2489 8.16211ZM75.0457 75.701H64.8374V63.5786C64.8374 52.6959 56.1421 43.8183 45.4234 43.8C41.1578 43.8 37.1109 45.1672 33.775 47.6828C34.814 44.6386 36.5276 41.8495 38.8427 39.5344C42.8531 35.524 48.176 33.3001 53.8452 33.3001H53.8999C65.5666 33.3365 75.0457 43.0891 75.0457 55.0656V75.701ZM47.4833 51.6568C52.1864 51.6568 56.0145 55.4849 56.0145 60.188C56.0145 64.8911 52.1864 68.7192 47.4833 68.7192C42.7802 68.7192 38.952 64.8911 38.952 60.188C38.952 55.4849 42.7802 51.6568 47.4833 51.6568ZM92.4545 75.701H81.9728V55.0656C81.9728 39.2792 69.3947 26.4095 53.9181 26.373H53.8452C46.3166 26.373 39.2437 29.3079 33.9208 34.6308C33.8479 34.7037 33.7932 34.7766 33.7203 34.8313C35.2151 30.8027 37.5666 27.1022 40.702 23.9668C46.4442 18.2246 54.0822 15.0709 62.2124 15.0892C78.8738 15.1256 92.4363 28.9615 92.4363 45.9328V75.701H92.4545Z" fill="#1A1E3C"/>
</svg>
