<?xml version="1.0" encoding="UTF-8"?>
<svg id="Layer_1" data-name="Layer 1" xmlns="http://www.w3.org/2000/svg" viewBox="0 0 104.16 69.27">
  <defs>
    <style>
      .cls-1 {
        fill: #ffbc00;
      }

      .cls-2 {
        fill: #323232;
      }
    </style>
  </defs>
  <g>
    <path class="cls-2" d="m9.6,69.19c.09-.52.31-2.17.31-2.17,0,0,.43.08.67.1,1.41.13,3.72-.38,3.56-3.56-.15-2.91-.37-3.47-.71-5.38-.23-1.28-1.16-4.16-1.19-4.43.85,0,2.18-.01,2.74,0,0,0,.16.43.22.68.59,2.29,1.34,5.03,1.09,7.71.18-.19.4-.53.45-.65,1.03-2.3,2.08-4.6,3.06-6.92.25-.58.39-.82.39-.82,0,0,1.85.01,2.56.01-.26.73-.47,1.36-.71,1.97-1.49,3.75-3.15,7.4-5.77,10.53-1.13,1.35-2.37,2.57-4.19,2.89-.42.07-1.87.19-2.49.04Z"/>
    <path class="cls-2" d="m65.9,50.25c-1.64-.18-3.12-.5-4.59-.46-4.63.13-7.4,4.2-6.95,8.32.27,2.45,2.03,3.83,4.73,3.83.74,0,2.04-.15,2.79-.22,0,0,.14-.56.22-1.02.23-1.39.45-2.77.63-4.16.07-.52.24-.75.79-.72.58.04,1.16,0,1.81,0,0,.26.02.44,0,.61-.33,2.06-.82,4.62-1.14,6.68,0,0-.16.22-.63.35-2.36.62-4.76.93-7.16.47-2.78-.54-4.62-2.22-4.87-5.43-.41-5.12,2.54-9.33,7.51-10.57,2.29-.57,4.61-.38,6.9.07.4.08.58.18.58.18-.18.58-.48,1.65-.6,2.08Z"/>
    <path class="cls-2" d="m25.51,56.63c.47-.59.92-1.24,1.44-1.81.7-.77,1.57-1.23,2.64-1.26,1.45-.04,2.35.49,2.61,1.91.43,2.41.13,4.72-1.51,6.68-1.04,1.25-2.43,1.93-4.04,1.98-1.37.04-2.76-.05-4.13-.16-.3-.02-.51-.05-.51-.05.16-1.06.36-2.68.53-3.74.46-2.89,1.68-9.51,1.68-9.51,0,0-1.67,0-1.68,0v-1.54c1.3-.11,3-.27,4.53-.36-.55,2.75-1.06,5.31-1.57,7.88Zm4.21.97c-.02-.35-.01-.7-.07-1.04-.13-.74-.71-1.06-1.4-.76-.29.13-.58.32-.8.54-1.43,1.47-2.17,3.29-2.53,5.28-.03.16-.15.54-.15.54.8-.04,2.13.05,2.79-.29,1.67-.87,2.08-2.52,2.17-4.28Z"/>
    <path class="cls-2" d="m70.91,56.73c.6-.75,1.05-1.4,1.59-1.97.69-.74,1.56-1.17,2.6-1.21,1.91-.07,2.85.91,2.65,2.81-.09.84-.21,1.67-.34,2.51-.25,1.55-.51,3.09-.79,4.63,0,0-.1.51-.1.51-.26,0-1.76,0-2.48,0,.18-1.17.31-2.27.48-3.34.18-1.15.4-2.3.57-3.46.08-.54.1-1.13-.48-1.42-.6-.3-1.1.05-1.52.43-1.19,1.09-1.9,2.49-2.34,4.01-.3,1.05-.49,2.69-.66,3.77,0,0-1.89,0-2.56,0,.16-1.06.32-2.77.49-3.83.46-2.89,1.68-9.51,1.68-9.51,0,0-1.67,0-1.68,0v-1.54c1.3-.11,3-.27,4.53-.36-.55,2.75-1.06,5.31-1.57,7.88.47-.59.92-1.24,1.44-1.81"/>
    <path class="cls-2" d="m78.35,60.61c.02-3.42,1.48-5.7,4.12-6.69,1.52-.57,3.08-.55,4.59.14.84.38,1.38,1.05,1.62,1.93.87,3.17-.68,6.51-3.71,7.78-1.61.67-3.31.7-4.91-.08-1.45-.71-1.69-2.07-1.71-3.07Zm2.69-.72c-.02,1.86,1.32,2.71,3.01,1.93,1.45-.67,2.36-2.67,2.08-4.55-.17-1.15-.99-1.82-2.13-1.58-.59.12-1.21.42-1.65.83-.97.88-1.28,2.09-1.31,3.37Z"/>
    <path class="cls-2" d="m41.39,61.51s0,.17,0,.19c-.14,1.85-.72,2.04-2.06,2.3-1.38.2-3.01.28-4.24-.02-.91-.22-1.55-.81-1.84-1.68-.8-2.46.02-6.39,2.68-7.97,1.49-.88,3.08-1.02,4.68-.51,2.26.71,1.97,3.35.84,4.33-1.16,1-2.56,1.32-4.02,1.47-.49.05-1.28.07-1.78.04,0,0-.12.34-.11.81.01,1.01.41,1.69,1.21,1.75,1.69.14,3.18-.04,4.66-.71Zm-5.4-3.43c1.17.05,2.34,0,3.29-.78.29-.24.44-.82.4-1.21-.05-.5-.53-.7-1.05-.73-1.35-.06-2.71,1.3-2.63,2.72Z"/>
    <path class="cls-2" d="m87.31,63.69c.48-.56.97-1.15,1.38-1.56,0,0,.35.03.57.03.88,0,1.71.08,2.57-.02.37-.04.89-.46.99-.81.1-.35-.14-.89-.39-1.24-.28-.38-.72-.66-1.12-.95-1.05-.79-1.55-1.83-1.25-3.12.29-1.24,1.21-1.99,2.39-2.21,1.11-.21,2.78-.14,3.92-.17,0,0-.03.28-.09.62-.07.37-.13.73-.2,1.08-.62,0-1.19-.02-1.77,0-.34.02-.71.07-1.02.21-.69.33-.85,1.06-.36,1.63.38.44.82.84,1.28,1.18,2.2,1.6,1.77,4.52-.95,5.47-1.95.68-3.92.36-5.97-.16Z"/>
    <path class="cls-2" d="m49.72,53.63c-.15.76-.3,1.48-.46,2.24-2.08-.02-2.83,1.55-3.41,3.1-.51,1.36-.74,2.84-1.02,4.28-.1.54-.21.76-.21.76,0,0-1.78-.02-2.4-.02,0-.3.73-4.99,1.12-7.11.18-1,.2-1.96-.58-2.94,1.22-.1,2.29-.19,3.5-.29-.25.99-.77,3.05-.72,3.08.14-.2.45-.68.6-.87.52-.65.92-1.28,1.52-1.85.52-.49,1.3-.57,2.04-.38Z"/>
    <path class="cls-2" d="m12.11,61.1c-.2.05-.51.13-.75.21-1.68.53-3.4.64-5.14.48-1.63-.15-2.69-1.04-3.06-2.63-.5-2.15-.11-4.2.86-6.13.93-1.83,2.45-2.96,4.53-3.09.77-.05,1.55.06,2.34.14,0,0,0,0,0,0,.56.07,1.28.23,1.28.23l.24-.98c.09-.31.16-.64.24-.99l.07-.27c-1.61-.38-3.12-.41-4.64-.26-1.82.18-3.46.84-4.8,2.1C.52,52.53-.32,55.84.1,59.52c.29,2.56,2.09,4.21,4.65,4.47,2,.21,3.98.07,5.93-.39,2.01-.47,1.75-.41,1.75-.41,0-.02-.29-1.95-.32-2.09Z"/>
    <path class="cls-2" d="m101.54,53.72l.62-3.66-2.68.46-.43,3.2h-1.84l-.28,1.86h1.87s-1.12,5.08-1.12,6.27.28,2.42,2.79,2.42c1.71.03,2.11-.3,2.11-.3l-.03-1.79h-1.22s-1.27.19-1.04-1.41.92-5.19.92-5.19h2.52l.45-1.83-2.63-.04Z"/>
  </g>
  <g>
    <path class="cls-1" d="m49.93,14.54c.8,1.17,1.16,2.46,1.16,3.97,0,1.35-.36,2.69-1.22,3.85-1.5,2.01-3.89,1.99-5.43-.03-1.68-2.23-1.61-5.91.17-8.06,1.53-1.86,3.95-1.73,5.32.27Z"/>
    <path class="cls-1" d="m58.72,15.06c.46.83.65,1.63.65,2.68,0,1.26-.31,2.42-1.15,3.36-1.18,1.31-2.88,1.26-3.99-.1-1.31-1.61-1.41-4.5-.22-6.22,1.32-1.9,3.57-1.77,4.7.28Z"/>
    <path class="cls-1" d="m49.79,0c-11.8,0-21.36,9.53-21.36,21.27s9.57,21.26,21.36,21.26,21.36-9.52,21.36-21.26S61.6,0,49.79,0Zm11.52,26.66c-.22,2.11-1.34,3.61-3.07,4.65-1.99,1.21-4.18,1.76-6.43,2.09-2.37.34-5.58.62-6.99.66-.69.03-1.71.01-2.57,0-1.69-.04-2.83-.94-3.34-2.62-.61-1.97-.57-4.01-.47-6.04.14-2.76.31-5.53.5-8.28.22-2.99,1.47-5.47,3.73-7.34,2.97-2.46,6.39-3.13,10-2,4.08,1.27,6.57,4.17,7.36,8.55.08.45.04.92.1,1.38.2,1.34.39,2.69.65,4.01.33,1.63.71,3.25.54,4.94Z"/>
    <path class="cls-2" d="m60.77,21.72c-.25-1.32-.45-2.68-.65-4.01-.06-.46-.03-.93-.1-1.38-.79-4.38-3.29-7.27-7.36-8.55-3.61-1.13-7.03-.46-10,2-2.27,1.87-3.52,4.34-3.73,7.34-.19,2.75-.36,5.52-.5,8.28-.1,2.03-.14,4.06.47,6.04.51,1.68,1.64,2.59,3.34,2.62.87.01,1.89.03,2.57,0,1.41-.04,4.62-.32,6.99-.66,2.25-.33,4.45-.88,6.43-2.09,1.73-1.04,2.85-2.54,3.07-4.65.18-1.69-.2-3.31-.54-4.94Zm-10.9.64c-1.5,2.01-3.89,1.99-5.43-.03-1.68-2.23-1.61-5.91.17-8.06,1.53-1.86,3.95-1.73,5.32.27.8,1.17,1.16,2.46,1.16,3.97,0,1.35-.36,2.69-1.22,3.85Zm8.36-1.26c-1.18,1.31-2.88,1.26-3.99-.1-1.31-1.61-1.41-4.5-.22-6.22,1.32-1.9,3.57-1.77,4.7.28.46.83.65,1.63.65,2.68,0,1.26-.31,2.42-1.15,3.36Z"/>
  </g>
</svg>