<?xml version="1.0" encoding="utf-8"?>
<!-- Generator: Adobe Illustrator 25.1.0, SVG Export Plug-In . SVG Version: 6.00 Build 0)  -->
<svg version="1.1" id="Layer_1" xmlns="http://www.w3.org/2000/svg" xmlns:xlink="http://www.w3.org/1999/xlink" x="0px" y="0px"
	 viewBox="0 0 120 90" style="enable-background:new 0 0 120 90;" xml:space="preserve">
<style type="text/css">
	.st0{fill-rule:evenodd;clip-rule:evenodd;fill:#DA3940;}
</style>
<desc>Created with Sketch.</desc>
<path class="st0" d="M12.8,78.9l-1,3.4H1.5v-0.5l1.3-0.9V70L1.5,69v-0.5h10.7l0.2,0.2l-0.7,3.1h-0.5c-0.4-1.9-1.1-2.2-4.2-2.2H5.6v5
	l4.9-0.3l0.1,0.1l-0.5,1.6l-0.1,0l-4.5-0.4v5.4H7c2.5,0,3.9-0.4,5.3-2.4L12.8,78.9z M118.5,69l-1.3,0.9v12.2l-0.2,0.2h-2.1
	l-7.8-10.8v9.4l1.6,0.9v0.5h-4.3v-0.5l1.3-0.9v-11l-1.5-0.9v-0.5h4.1l7.5,10.4v-9l-1.6-0.9v-0.5h4.3V69z M96.1,80.9l1.6,0.9v0.5H92
	v-0.5l1.3-0.9V70L92,69v-0.5h5.8c4,0,6.1,1.4,6.1,4c0,3-2.9,5.1-7.3,5.1c-0.2,0-0.4,0-0.5,0L96.1,80.9z M90.9,69l-1.4,0.9L85,82.3
	h-2.6L77.7,70l-1.4-1v-0.5h5.6V69L80.5,70l3.9,10h0.2l3.3-10L86.4,69v-0.5h4.4V69z M96.1,76.5c3.1,0.1,4.9-1.4,4.9-3.8
	c0-2-1-3.1-3.1-3.1c-0.6,0-1.3,0.2-1.8,0.4V76.5z M38.2,76.6c0,3.4-2.3,5.9-5.5,5.9c-0.9,0-1.7-0.2-2.5-0.6v3.4l1.6,0.9v0.5h-5.6
	v-0.5l1.4-0.9V73.3l-1.4-0.8V72l3.6-0.7l0.4,0.3v1.5c0.9-1.1,2.2-1.8,3.6-1.8C36.4,71.3,38.2,73.6,38.2,76.6z M46.9,73.7h-0.5
	c-0.3-0.2-0.7-0.3-1.1-0.3c-0.8,0-1.6,0.3-2.2,0.9v6.6l1.6,0.9v0.5h-5.6v-0.5l1.4-0.9v-7.6l-1.4-0.8V72l3.6-0.7l0.4,0.3v1.7
	c0.7-1.1,1.9-1.9,3.1-1.9c0.6,0,1,0.2,1.4,0.4L46.9,73.7z M55.1,76.7c-1.5,0-3.1,0-4.9-0.1c0.2,2.4,1.6,3.9,3.7,3.9
	c1.3,0,2.2-0.3,2.9-0.9l0.5,0.3c-0.7,1.7-2.3,2.7-4.4,2.7c-3.2,0-5.4-2.2-5.4-5.6c0-3.2,2.1-5.7,5.4-5.7c1.5,0,2.6,0.5,3.4,1.4
	c0.8,0.9,1.2,2.2,1.2,3.7l-0.3,0.3C56.8,76.7,56.1,76.7,55.1,76.7L55.1,76.7z M59.5,79.2h0.5c0.9,1.4,2.1,2.2,3.2,2.2
	c1,0,1.5-0.5,1.5-1.3c0-0.9-0.5-1.4-1.8-1.9l-1-0.4c-1.9-0.7-3-1.8-3-3.3c0-1.8,1.7-3.2,4.2-3.2c1.5,0,2.9,0.3,3.9,1l-1,1.8h-0.4
	c-0.7-1.1-1.6-1.7-2.7-1.7c-0.9,0-1.5,0.5-1.5,1.2c0,0.8,0.6,1.3,2.2,1.9l1.1,0.4c1.7,0.7,2.4,1.7,2.4,3c0,2.1-1.7,3.4-4.2,3.4
	c-1.6,0-3.2-0.4-4.3-1.1L59.5,79.2z M69,79.2h0.5c0.9,1.4,2.1,2.2,3.2,2.2c1,0,1.5-0.5,1.5-1.3c0-0.9-0.5-1.4-1.8-1.9l-1-0.4
	c-1.9-0.7-3-1.8-3-3.3c0-1.8,1.7-3.2,4.2-3.2c1.5,0,2.9,0.3,3.9,1l-1,1.8H75c-0.7-1.1-1.6-1.7-2.7-1.7c-0.9,0-1.5,0.5-1.5,1.2
	c0,0.8,0.6,1.3,2.2,1.9l1.1,0.4c1.7,0.7,2.4,1.7,2.4,3c0,2.1-1.7,3.4-4.2,3.4c-1.6,0-3.2-0.4-4.3-1.1L69,79.2z M20.7,76.8l3.2,4.1
	l1.2,0.9v0.5h-5.4v-0.5l1.1-0.9l-2.2-3l-2.1,3l1.3,0.9v0.5h-4.3v-0.5l1.3-0.9l3.1-3.8L14.8,73l-1.2-1v-0.5H19v0.5l-1.1,0.8l2.2,2.9
	l2.1-2.9l-1.3-0.8v-0.5h4.3v0.5L23.8,73L20.7,76.8z M54.8,75.3c-0.2-1.9-1.1-2.8-2.3-2.8c-1.3,0-2.2,1.3-2.2,3.1L54.8,75.3z
	 M35.5,77.7c0-2.4-1.2-4.4-3.1-4.4c-0.8,0-1.5,0.3-2.3,0.8v5.7c0.6,0.9,1.5,1.4,2.7,1.4C34.5,81.2,35.5,79.9,35.5,77.7z"/>
<path class="st0" d="M45.9,56c-6.8,0-11.2-3.8-11.2-9.2c0-1.8,0.5-3.9,2.5-8.3H30l6.6-14.1h45.8c1,0,1.8-0.8,1.8-1.7
	c0-0.9-0.7-1.7-1.8-1.7H45.4l3.3-7C50.6,9.8,55,7,59.8,7h15.6c9,0,15.6,6.2,15.6,14.3c0,9.6-8.8,17.3-19,17.3H41.9
	c-0.9,1.9,0.1,3.4,2.3,3.4h24c4,0,7,2.8,7,6.4c0,4.1-4,7.7-8.5,7.7L45.9,56z"/>
</svg>
