<svg width="126" height="126" viewBox="0 0 126 126" fill="none" xmlns="http://www.w3.org/2000/svg">
<path d="M100.612 32.0827C99.5423 30.6178 98.1309 29.4367 96.5004 28.6424C94.8699 27.8482 93.0699 27.4648 91.2573 27.5258H73.3906V37.7086H89.5602C90.081 37.6954 90.5972 37.8104 91.0632 38.0434C91.5292 38.2764 91.9309 38.6203 92.2328 39.045C92.84 39.9325 93.1489 40.9902 93.1148 42.065C93.1528 43.1072 92.8425 44.1322 92.2328 44.9782C91.9276 45.3995 91.5254 45.741 91.0601 45.9736C90.5948 46.2062 90.0803 46.3232 89.5602 46.3146H73.3906V56.7913H91.2573C93.0696 56.85 94.8688 56.4657 96.4989 55.6716C98.129 54.8775 99.5407 53.6977 100.612 52.2345C102.747 49.3369 103.857 45.8105 103.765 42.212C103.882 38.5771 102.771 35.0089 100.612 32.0827Z" fill="#231F20"/>
<path d="M68.4303 27.5117H56.8711V37.7079H68.4303V27.5117Z" fill="#6FBC44"/>
<path d="M53.8638 18.1055H46.7812V24.3595H53.8638V18.1055Z" fill="#6FBC44"/>
<path d="M44.0042 17.7578H38.8594V22.288H44.0042V17.7578Z" fill="#6FBC44"/>
<path d="M53.7577 27.5117H46.9023V33.5653H53.7577V27.5117Z" fill="#6FBC44"/>
<path d="M51.6722 11.209H46.5273V15.7391H51.6722V11.209Z" fill="#6FBC44"/>
<path d="M42.8655 11.5176H39.0703V14.8718H42.8655V11.5176Z" fill="#6FBC44"/>
<path d="M37.2678 7H33.4727V10.3542H37.2678V7Z" fill="#6FBC44"/>
<path d="M64.7968 18.1992H57.9414V24.2528H64.7968V18.1992Z" fill="#6FBC44"/>
<path d="M68.4156 46.582C65.1172 46.8351 62.0525 48.3819 59.8897 50.8851C57.7269 53.3883 56.6414 56.645 56.8698 59.9453V75.9812H68.4156V46.582Z" fill="#231F20"/>
<path d="M75.1927 65.3164C84.9612 66.5325 91.7765 69.3254 91.7765 72.4791C91.7765 76.8088 79.3086 80.3233 63.9275 80.3233C48.5464 80.3233 36.0918 76.8222 36.0918 72.4791C36.0918 69.2719 42.9071 66.5325 52.6756 65.3164C39.8469 66.6527 30.6797 70.3811 30.6797 74.6707C30.6797 80.2031 45.5931 84.6664 63.9275 84.6664C82.2619 84.6664 97.1752 80.1897 97.1752 74.6707C97.1752 70.3811 88.0081 66.7062 75.1927 65.3164Z" fill="#6FBC44"/>
<path d="M39.4074 110.325L34.5352 95.3516H39.1962L40.8203 101.848C41.2101 103.472 41.6486 105.291 41.9409 107.045C42.2332 105.258 42.5743 103.456 43.0128 101.783L44.4907 95.384H49.1193L44.2471 110.374L39.4074 110.325Z" fill="#6FBC44"/>
<path d="M53.8477 106.899L52.8895 110.326H48.7969L53.4255 95.3359H58.4601L62.6664 110.326H58.655L57.7292 106.899H53.8477ZM57.3395 104.626L56.6736 101.491C56.4462 100.582 56.1539 99.0875 55.9752 98.0968H55.8778C55.6504 99.1038 55.3419 100.663 55.1145 101.524L54.3187 104.642L57.3395 104.626Z" fill="#6FBC44"/>
<path d="M65.1016 110.325V95.3516H68.9668L72.2962 101.231C72.9296 102.384 74.0014 104.3 74.6023 105.616C74.4724 103.992 74.1801 101.442 74.1801 98.6809V95.4328H77.883V110.423H74.0989L70.8508 104.722C70.0074 103.235 69.2746 101.688 68.6583 100.094H68.5446C68.642 101.604 68.8044 103.927 68.8044 106.931V110.293L65.1016 110.325Z" fill="#6FBC44"/>
<path d="M85.9062 95.3516V110.342H81.6836V95.3516H85.9062Z" fill="#6FBC44"/>
<path d="M89.155 107.353C90.3028 107.731 91.5034 107.923 92.7117 107.922C94.7093 107.922 95.6675 107.207 95.6675 106.298C95.6675 105.388 94.7093 104.674 92.8741 103.862C89.9183 102.611 88.7977 101.036 88.7977 99.6878C88.8139 97.203 91.1526 95.2216 95.6512 95.2216C96.8049 95.2061 97.9528 95.3873 99.0455 95.7576L98.3797 98.2749C97.5042 97.916 96.5648 97.7391 95.6188 97.7552C93.816 97.7552 92.9553 98.5185 92.9553 99.3792C92.9553 100.24 93.5887 100.727 95.9436 101.718C98.8019 102.92 99.8738 104.43 99.8738 105.989C99.8738 108.734 96.9505 110.52 92.7117 110.52C91.3036 110.516 89.9053 110.286 88.5703 109.838L89.155 107.353Z" fill="#6FBC44"/>
<path d="M106.531 95.3516V101.361H110.932V95.3516H115.139V110.342H110.932V104.073H106.531V110.342H102.309V95.3516H106.531Z" fill="#6FBC44"/>
<path d="M52.3526 121.776L49.8516 113.785H52.2552L53.051 117.244C53.2459 118.105 53.4732 119.096 53.6194 120.022C53.7656 119.08 53.9442 118.121 54.1553 117.212L54.9186 113.801H57.2898L54.74 121.792L52.3526 121.776Z" fill="#231F20"/>
<path d="M61.5469 113.899C62.2949 113.796 63.0493 113.747 63.8043 113.752C64.8497 113.663 65.8987 113.877 66.8251 114.37C67.1225 114.554 67.3671 114.813 67.535 115.12C67.7029 115.428 67.7884 115.773 67.7833 116.124C67.7924 116.495 67.7115 116.864 67.5475 117.197C67.3835 117.531 67.1412 117.82 66.8413 118.04C66.0322 118.556 65.0886 118.821 64.1291 118.803H63.7069V121.775H61.5469V113.899ZM63.6744 117.536H64.0317C65.1036 117.536 65.6558 116.984 65.6558 116.237C65.6558 115.49 65.266 114.987 64.2428 114.987C64.0648 114.965 63.8849 114.965 63.7069 114.987L63.6744 117.536Z" fill="#231F20"/>
<path d="M72.4258 121.776V113.785H74.4071L76.1611 116.92C76.4859 117.537 77.0381 118.544 77.3629 119.258C77.3629 118.414 77.1518 117.033 77.1518 115.555V113.785H79.052V121.776H77.1031L75.479 118.69C75.0135 117.934 74.6011 117.148 74.2447 116.335C74.2447 117.147 74.3747 118.365 74.3747 119.989V121.776H72.4258Z" fill="#231F20"/>
<path d="M44.1353 115.603H11.1992V115.148H44.1353V115.603Z" fill="#231F20"/>
<path d="M114.62 115.603H84.7539V115.148H114.62V115.603Z" fill="#231F20"/>
<path d="M16.5248 95.3516V110.342H12.3672V95.3516H16.5248Z" fill="#231F20"/>
<path d="M20.0195 95.5625C21.4772 95.3517 22.9479 95.2432 24.4207 95.2377C26.4496 95.067 28.4858 95.4664 30.2999 96.3908C30.8685 96.721 31.3404 97.1949 31.6682 97.765C31.996 98.3351 32.1682 98.9813 32.1675 99.6389C32.1999 100.361 32.0486 101.079 31.7276 101.727C31.4066 102.375 30.9266 102.93 30.3323 103.342C28.7535 104.321 26.9278 104.828 25.0704 104.803H24.1934V110.325H20.0195V95.5625ZM24.1934 102.367C24.4147 102.39 24.6379 102.39 24.8592 102.367C26.9868 102.367 27.945 101.295 27.945 99.9313C27.945 98.567 27.1817 97.5926 25.2165 97.5926C24.8559 97.5866 24.496 97.6248 24.1447 97.7063L24.1934 102.367Z" fill="#231F20"/>
</svg>
