<?xml version="1.0" encoding="UTF-8" standalone="no"?><!DOCTYPE svg PUBLIC "-//W3C//DTD SVG 1.1//EN" "http://www.w3.org/Graphics/SVG/1.1/DTD/svg11.dtd"><svg width="100%" height="100%" viewBox="0 0 6671 6667" version="1.1" xmlns="http://www.w3.org/2000/svg" xmlns:xlink="http://www.w3.org/1999/xlink" xml:space="preserve" xmlns:serif="http://www.serif.com/" style="fill-rule:evenodd;clip-rule:evenodd;stroke-linejoin:round;stroke-miterlimit:2;"><rect id="ivacy-vertical" x="1.273" y="0" width="6666.67" height="6666.67" style="fill:none;"/><g><path d="M4938.65,1250.98c-1556.86,-984.202 -2840.75,-268.096 -3218.62,-7.914c-41.925,28.871 -74.041,68.727 -93.696,114.207c495.42,444.169 923.575,570.898 923.575,570.898c871.866,-554.822 1562.93,15.593 1562.93,15.593c545.383,-209.464 927.167,-570.762 928.901,-572.396c-21.167,-48.861 -56.738,-91.084 -103.085,-120.388Z" style="fill:#21a7f4;fill-rule:nonzero;"/><g><path d="M5063.59,1468.62c-1.114,-34.011 -8.731,-66.895 -21.86,-97.227c-1.722,1.635 -387.778,362.933 -933.162,572.397c31.459,1165.88 -721.159,1374.99 -783.086,1388.03l-0,1076.18c12.385,-0.706 28.35,-3.282 39.72,-8.026c1638.76,-683.853 1714.71,-2432.4 1698.39,-2931.35Z" style="fill:#29d9ff;fill-rule:nonzero;"/><path d="M3329.09,3331.98c-1.499,0.371 -0.149,0.545 -0.149,0.545c-865.004,-278.414 -780.114,-1404.36 -780.114,-1404.36c0,-0 -427.609,-126.729 -923.03,-570.886c-13.996,32.376 -21.452,67.576 -21.712,103.816c-15.506,2212.42 1420.3,2842.95 1685.03,2940.37c14.23,5.239 25.031,7.382 39.906,6.601c0.223,-0.012 -3.543,-0.049 -3.543,-0.062l0,-1076.18c0.013,0.037 3.803,0.112 3.617,0.149Z" style="fill:#29d9ff;fill-rule:nonzero;"/></g><path d="M5063.59,1468.62c-1.114,-34.011 -8.731,-66.895 -21.86,-97.227c-1.722,1.635 -383.84,362.933 -929.223,572.397c31.471,1165.88 -726.72,1375.71 -781.588,1388.75l2.452,1075.47c9.141,-0.706 24.412,-3.282 35.782,-8.025c1638.75,-683.866 1710.76,-2432.42 1694.44,-2931.37Z" style="fill:#27abf7;fill-rule:nonzero;"/></g><g id="ivacyText"><rect x="1906.46" y="5064.53" width="125.883" height="694.797" style="fill-rule:nonzero;"/><path d="M2691.99,5064.54l127.835,0l-309.341,694.797l-102.463,0l-309.34,-694.797l130.77,0l231.274,536.703l231.265,-536.703Z" style="fill-rule:nonzero;"/><path d="M3350.69,5759.33l-69.284,-162.965l-339.592,-0l-70.26,162.965l-126.859,-0l314.22,-694.797l102.471,0l315.187,694.797l-125.883,-0Zm-366.915,-260.541l255.67,0l-127.835,-297.63l-127.835,297.63Z" style="fill-rule:nonzero;"/><path d="M3666.38,5724.2c-51.074,-29.276 -90.265,-70.749 -117.589,-124.42c-27.323,-53.671 -40.985,-116.612 -40.985,-188.824c0,-71.551 13.662,-134.178 40.985,-187.849c27.324,-53.671 66.515,-94.979 117.589,-123.932c51.066,-28.936 110.766,-43.424 179.066,-43.424c46.84,-0 90.91,7.318 132.226,21.956c41.3,14.637 75.628,34.973 102.951,60.99l-40.993,91.729c-31.219,-25.372 -62.297,-43.748 -93.185,-55.135c-30.912,-11.371 -63.917,-17.077 -99.055,-17.077c-67.019,-0 -118.904,21.807 -155.647,65.381c-36.759,43.59 -55.134,106.043 -55.134,187.361c-0,81.97 18.201,144.912 54.647,188.824c36.42,43.913 88.462,65.869 156.134,65.869c35.13,0 68.135,-5.689 99.055,-17.069c30.88,-11.379 61.958,-29.771 93.185,-55.134l40.993,91.728c-27.332,26.025 -61.651,46.344 -102.951,60.99c-41.316,14.638 -85.386,21.948 -132.226,21.948c-68.308,0 -128.008,-14.637 -179.066,-43.912Z" style="fill-rule:nonzero;"/><path d="M4762.75,5064.54l-282.026,419.602l0,275.187l-125.883,-0l-0,-275.187l-282.017,-419.602l143.448,0l201.023,314.22l201.998,-314.22l143.457,0Z" style="fill-rule:nonzero;"/></g></svg>