<svg width="126" height="126" viewBox="0 0 126 126" fill="none" xmlns="http://www.w3.org/2000/svg">
<path d="M123.28 106.254C122.559 106.254 121.867 105.965 121.357 105.452C120.847 104.939 120.561 104.242 120.561 103.516C120.561 102.975 120.72 102.445 121.019 101.995C121.318 101.545 121.743 101.194 122.24 100.987C122.737 100.779 123.283 100.725 123.811 100.831C124.339 100.936 124.823 101.197 125.203 101.58C125.584 101.963 125.843 102.451 125.948 102.982C126.053 103.513 125.999 104.064 125.793 104.564C125.587 105.064 125.239 105.492 124.791 105.793C124.344 106.093 123.818 106.254 123.28 106.254ZM123.28 101.271C122.838 101.266 122.404 101.393 122.034 101.636C121.664 101.879 121.374 102.228 121.201 102.638C121.028 103.047 120.98 103.5 121.063 103.937C121.146 104.374 121.356 104.777 121.667 105.094C121.977 105.41 122.375 105.627 122.808 105.716C123.241 105.805 123.691 105.762 124.1 105.593C124.509 105.424 124.859 105.136 125.105 104.766C125.352 104.396 125.483 103.961 125.483 103.516C125.489 103.221 125.436 102.929 125.327 102.655C125.219 102.381 125.058 102.132 124.853 101.921C124.648 101.711 124.403 101.544 124.133 101.43C123.863 101.316 123.573 101.257 123.28 101.257V101.271ZM122.872 104.009V105.131H122.22V101.942H123.457C123.596 101.924 123.736 101.937 123.87 101.978C124.003 102.02 124.126 102.09 124.23 102.183C124.334 102.276 124.418 102.391 124.474 102.519C124.531 102.648 124.56 102.787 124.559 102.927C124.57 103.119 124.519 103.31 124.413 103.47C124.308 103.631 124.154 103.752 123.974 103.817L124.613 105.063H123.906L123.348 103.94L122.872 104.009ZM123.906 103.01C123.906 102.695 123.648 102.626 123.403 102.626H122.872V103.393H123.416C123.648 103.324 123.906 103.229 123.906 102.941V103.01ZM13.3805 121.312L4.07943 107.253V121.312H0V100.929H4.73214L13.5165 114.221V100.929H17.5959V121.312H13.3805ZM20.1116 114.385C20.1238 113.405 20.33 112.436 20.7184 111.537C21.1067 110.637 21.6693 109.824 22.3733 109.146C23.0773 108.468 23.9085 107.938 24.8183 107.587C25.7281 107.236 26.6983 107.072 27.6721 107.103C28.6384 107.066 29.6022 107.225 30.5063 107.57C31.4103 107.916 32.2363 108.441 32.9351 109.113C33.6339 109.786 34.1913 110.594 34.5743 111.487C34.9573 112.381 35.1581 113.343 35.1647 114.317C35.1579 115.298 34.9563 116.268 34.5719 117.17C34.1875 118.072 33.628 118.887 32.9262 119.568C32.2244 120.249 31.3945 120.782 30.4852 121.136C29.5759 121.489 28.6056 121.656 27.6313 121.627C26.6594 121.668 25.6893 121.51 24.7794 121.164C23.8694 120.818 23.0383 120.29 22.336 119.612C21.6337 118.935 21.0746 118.121 20.6924 117.221C20.3101 116.32 20.1126 115.351 20.1116 114.372V114.385ZM24.191 114.385C24.2151 115.057 24.435 115.707 24.8235 116.253C25.2119 116.8 25.7517 117.219 26.3754 117.459C26.999 117.699 27.6791 117.749 28.3306 117.602C28.9821 117.455 29.5763 117.119 30.039 116.634C30.5017 116.15 30.8125 115.539 30.9325 114.877C31.0525 114.216 30.9765 113.534 30.7139 112.916C30.4513 112.298 30.0138 111.772 29.4559 111.403C28.8981 111.033 28.2446 110.838 27.5769 110.84C27.1299 110.847 26.6888 110.943 26.2789 111.123C25.869 111.302 25.4985 111.562 25.1887 111.886C24.879 112.211 24.6362 112.594 24.4743 113.014C24.3124 113.433 24.2346 113.881 24.2454 114.331L24.191 114.385ZM44.9961 107.459V111.442C44.5476 111.361 44.0921 111.324 43.6363 111.333C41.7054 111.333 40.3592 112.702 40.3592 115.262V121.312H36.5245V107.404H40.3456V109.43C40.6564 108.751 41.1616 108.181 41.7964 107.793C42.4312 107.405 43.1666 107.217 43.9083 107.253C44.2937 107.257 44.6772 107.307 45.0505 107.404L44.9961 107.459ZM56.6905 121.312V119.533C56.1988 120.201 55.5501 120.736 54.8025 121.089C54.0549 121.443 53.2318 121.604 52.4071 121.559C51.5009 121.529 50.6097 121.317 49.786 120.936C48.9623 120.554 48.2227 120.011 47.6107 119.337C46.9987 118.664 46.5267 117.874 46.2225 117.014C45.9183 116.154 45.7879 115.242 45.8392 114.331C45.7943 112.5 46.4616 110.724 47.6986 109.382C48.9357 108.039 50.6448 107.236 52.4615 107.144C53.2327 107.143 53.9953 107.307 54.6986 107.626C55.402 107.945 56.0299 108.41 56.5409 108.992V100.121H60.6203V121.312H56.6905ZM56.6905 114.344C56.6665 113.671 56.4461 113.019 56.0567 112.47C55.6674 111.921 55.1263 111.5 54.5009 111.259C53.8755 111.018 53.1934 110.967 52.5396 111.113C51.8858 111.259 51.2892 111.596 50.824 112.081C50.3588 112.566 50.0457 113.178 49.9236 113.841C49.8015 114.504 49.8759 115.189 50.1374 115.809C50.399 116.43 50.8361 116.96 51.3945 117.332C51.9528 117.704 52.6076 117.903 53.2774 117.904C53.7389 117.91 54.1968 117.821 54.6228 117.641C55.0487 117.462 55.4336 117.197 55.7535 116.862C56.0735 116.527 56.3217 116.13 56.4829 115.694C56.6441 115.259 56.7147 114.795 56.6905 114.331V114.344ZM69.1599 121.312L61.8442 100.929H66.3723L71.6076 116.411L76.938 100.929H81.3846L73.9873 121.312H69.1599ZM97.7975 107.472C97.7975 111.976 94.6428 114.125 90.4138 114.125H87.2318V121.312H83.0436V100.929H90.5362C94.6156 100.929 97.7975 103.146 97.7975 107.459V107.472ZM93.5821 107.582C93.5821 105.597 91.9368 104.926 90.2098 104.926H87.2318V110.196H90.2234C91.896 110.183 93.5821 109.457 93.5821 107.623V107.582ZM113.34 121.271L104.039 107.226V121.312H99.9596V100.929H104.746L113.531 114.221V100.929H117.61V121.312L113.34 121.271Z" fill="#373B42"/>
<path d="M21.6998 81.5538C16.3553 74.1974 13.1516 65.5093 12.4429 56.4492C11.7341 47.3891 13.5479 38.3097 17.6837 30.2142C21.8195 22.1186 28.1164 15.3221 35.8787 10.5753C43.641 5.82855 52.5666 3.31641 61.6693 3.31641C70.7721 3.31641 79.6976 5.82855 87.46 10.5753C95.2223 15.3221 101.519 22.1186 105.655 30.2142C109.791 38.3097 111.604 47.3891 110.896 56.4492C110.187 65.5093 106.983 74.1974 101.639 81.5538L77.9382 43.0029L75.634 46.8706L77.9382 57.6396L61.6313 29.8323L51.5029 46.8453L53.8577 57.7154L45.3245 43.104L21.6998 81.5538Z" fill="#4687FF"/>
</svg>
