<?xml version="1.0" encoding="UTF-8" standalone="no"?><!DOCTYPE svg PUBLIC "-//W3C//DTD SVG 1.1//EN" "http://www.w3.org/Graphics/SVG/1.1/DTD/svg11.dtd"><svg width="100%" height="100%" viewBox="0 0 6667 6667" version="1.1" xmlns="http://www.w3.org/2000/svg" xmlns:xlink="http://www.w3.org/1999/xlink" xml:space="preserve" xmlns:serif="http://www.serif.com/" style="fill-rule:evenodd;clip-rule:evenodd;stroke-linejoin:round;stroke-miterlimit:2;"><rect id="norton-vertical" x="0" y="0" width="6666.67" height="6666.67" style="fill:none;"/><g><g><path d="M687.025,5737.97l-0,-931.622l232.903,0l-0,122.092l33.809,0c15.029,-32.548 43.199,-63.541 84.523,-92.975c41.323,-29.408 103.92,-44.14 187.828,-44.14c72.605,0 136.171,16.614 190.642,49.773c54.468,33.195 96.729,78.89 126.781,137.115c30.055,58.225 45.081,126.166 45.081,203.789l-0,555.968l-236.661,0l0,-537.185c0,-70.108 -17.227,-122.7 -51.654,-157.77c-34.456,-35.045 -83.582,-52.592 -147.443,-52.592c-72.636,-0 -128.986,24.124 -169.042,72.31c-40.092,48.22 -60.107,115.515 -60.107,201.916l0,473.321l-236.66,0Z" style="fill:#242424;"/><path d="M2200.48,5553.9c72.617,-0 132.721,-23.481 180.311,-70.435c47.59,-46.959 71.369,-114.254 71.369,-201.916l-0,-18.784c-0,-87.633 -23.459,-154.954 -70.409,-201.91c-46.982,-46.956 -107.406,-70.434 -181.271,-70.434c-72.617,-0 -132.721,23.478 -180.311,70.434c-47.59,46.956 -71.369,114.277 -71.369,201.91l-0,18.784c-0,87.662 23.779,154.957 71.369,201.916c47.59,46.954 107.694,70.435 180.311,70.435Zm-0,210.363c-92.684,-0 -175.927,-18.78 -249.792,-56.347c-73.897,-37.566 -132.145,-92.034 -174.678,-163.409c-42.594,-71.376 -63.871,-157.127 -63.871,-257.322l0,-30.052c0,-100.163 21.277,-185.95 63.871,-257.322c42.533,-71.373 100.781,-125.847 174.678,-163.41c73.865,-37.563 157.108,-56.346 249.792,-56.346c92.651,-0 175.926,18.783 249.823,56.346c73.866,37.563 132.081,92.037 174.679,163.41c42.533,71.372 63.848,157.159 63.848,257.322l-0,30.052c-0,100.195 -21.315,185.946 -63.848,257.322c-42.598,71.375 -100.813,125.843 -174.679,163.409c-73.897,37.567 -157.172,56.347 -249.823,56.347Z" style="fill:#242424;"/><path d="M2812.4,5737.97l0,-931.622l232.894,0l-0,105.185l33.796,-0c13.794,-37.567 37.989,-62.837 69.929,-80.388c31.94,-17.519 67.817,-24.797 110.414,-24.797l112.686,0l0,195.34l-116.462,-0c-68.425,1.53 -109.582,27.235 -148.371,59.169c-38.821,31.927 -58.248,81.089 -58.248,147.443l0,529.67l-236.638,0Z" style="fill:#242424;"/><path d="M3704.74,5737.97c-61.351,0 -111.15,-19.078 -149.33,-57.284c-38.213,-38.187 -57.288,-89.218 -57.288,-153.082l0,-525.913l-232.893,0l-0,-195.343l232.893,0l0,-289.249l236.67,-0l0,289.249l255.457,0l-0,195.343l-255.457,0l0,484.593c0,37.566 17.538,56.346 52.583,56.346l180.311,0l-0,195.34l-262.946,0Z" style="fill:#242424;"/><path d="M4519.5,5553.9c72.617,-0 132.721,-23.481 180.311,-70.435c47.59,-46.959 71.369,-114.254 71.369,-201.916l-0,-18.784c-0,-87.633 -23.459,-154.954 -70.409,-201.91c-46.982,-46.956 -107.406,-70.434 -181.271,-70.434c-72.617,-0 -132.721,23.478 -180.311,70.434c-47.59,46.956 -71.369,114.277 -71.369,201.91l-0,18.784c-0,87.662 23.779,154.957 71.369,201.916c47.59,46.954 107.694,70.435 180.311,70.435Zm-0,210.363c-92.684,-0 -175.927,-18.78 -249.792,-56.347c-73.897,-37.566 -132.145,-92.034 -174.678,-163.409c-42.597,-71.376 -63.88,-157.127 -63.88,-257.322l-0,-30.052c-0,-100.163 21.283,-185.95 63.88,-257.322c42.533,-71.373 100.781,-125.847 174.678,-163.41c73.865,-37.563 157.108,-56.346 249.792,-56.346c92.652,-0 175.926,18.783 249.823,56.346c73.866,37.563 132.081,92.037 174.679,163.41c42.533,71.372 63.848,157.159 63.848,257.322l-0,30.052c-0,100.195 -21.315,185.946 -63.848,257.322c-42.598,71.375 -100.813,125.843 -174.679,163.409c-73.897,37.567 -157.171,56.347 -249.823,56.347Z" style="fill:#242424;"/><path d="M5131.41,5737.97l0,-931.622l232.894,0l-0,122.092l33.796,0c15.042,-32.548 43.206,-63.541 84.523,-92.975c41.349,-29.408 103.917,-44.14 187.832,-44.14c72.617,0 136.177,16.614 190.648,49.773c54.471,33.195 96.748,78.89 126.8,137.115c30.052,58.225 45.062,126.166 45.062,203.789l-0,555.968l-236.67,0l-0,-537.185c-0,-70.108 -17.219,-122.7 -51.655,-157.77c-34.436,-35.045 -83.562,-52.592 -147.443,-52.592c-72.617,-0 -128.976,24.124 -169.045,72.31c-40.069,48.22 -60.104,115.515 -60.104,201.916l0,473.321l-236.638,0Z" style="fill:#242424;"/></g><path d="M6122.74,4915.34l0,-109.439l38.917,-0l20.419,90.708l4.864,-0l20.451,-90.708l38.917,-0l-0,109.439l-20.451,0l0,-90.705l-4.833,0l-20.45,90.705l-32.1,0l-20.451,-90.705l-4.864,0l-0,90.705l-20.419,0Zm-71.017,0l0,-90.705l-36.005,0l0,-18.734l92.428,-0l0,18.734l-36.004,0l-0,90.705l-20.419,0Z" style="fill:#242424;"/></g><g><path d="M4968.39,2447.43c-0,901.552 -733.454,1635.01 -1635.01,1635.01c-901.642,-0 -1635.1,-733.454 -1635.1,-1635.01c0,-901.643 733.454,-1635.1 1635.1,-1635.1c249.175,-0 485.499,55.973 697.067,156.121l-271.57,349.842c-132.417,-50.026 -275.765,-77.4 -425.497,-77.4c-635.762,-0 -1158.17,494.159 -1203.39,1118.63c-0.872,12.599 -1.572,25.276 -2.098,38.049c-0.699,16.532 -1.046,33.147 -1.046,49.853c0,665.234 541.209,1206.44 1206.53,1206.44c665.234,-0 1206.44,-541.209 1206.44,-1206.44c0,-88.948 -9.706,-175.714 -27.989,-259.15l315.129,-405.905c90.871,203.254 141.424,428.384 141.424,665.055" style="fill:#fbde2a;"/><path d="M4635.07,1459.11l-1242.22,1600.02l-788.728,-705.117l285.561,-319.492l446.321,398.995l994.522,-1281.05c114.493,88.332 216.995,191.54 304.544,306.636" style="fill:#242424;"/></g></svg>