<svg width="126" height="126" viewBox="0 0 126 126" fill="none" xmlns="http://www.w3.org/2000/svg">
<path d="M122.732 120.378H119.525C119.225 120.378 119.105 120.229 118.975 120.009C117.716 117.797 116.45 115.592 115.178 113.394L113.239 110.026C113.239 109.946 113.179 109.836 113.059 109.816C113.02 109.964 113.02 110.119 113.059 110.266V119.809C113.059 120.388 113.059 120.398 112.47 120.398C111.88 120.398 111.171 120.398 110.531 120.398C110.142 120.398 110.012 120.269 110.012 119.889C110.012 118.33 110.012 116.771 110.012 115.212V105.739C110.012 105.02 110.012 105.02 110.741 105.02C111.471 105.02 112.35 105.02 113.149 105.02C113.293 105.005 113.438 105.035 113.564 105.107C113.689 105.179 113.789 105.288 113.849 105.42C115.734 108.751 117.629 112.055 119.535 115.332C119.535 115.422 119.654 115.512 119.774 115.702C119.774 115.452 119.774 115.312 119.774 115.162V105.62C119.774 105.01 119.774 105 120.374 105H122.742L122.732 120.378Z" fill="#684A75"/>
<path d="M96.5204 112.66V105.576C96.5204 105.016 96.5204 105.006 97.09 105.006C99.1485 105.006 101.197 105.006 103.255 105.006C103.992 104.968 104.727 105.108 105.399 105.414C106.07 105.72 106.658 106.184 107.112 106.765C107.699 107.538 108.056 108.46 108.145 109.426C108.233 110.392 108.048 111.364 107.612 112.231C107.244 113.063 106.63 113.763 105.854 114.238C105.077 114.713 104.174 114.94 103.265 114.889C102.199 114.889 101.13 114.889 100.058 114.889C99.6381 114.889 99.4982 114.989 99.4982 115.428C99.4982 116.907 99.4982 118.426 99.4982 119.855C99.4982 120.255 99.3683 120.395 98.9686 120.385C98.2991 120.385 97.6396 120.385 96.9701 120.385C96.6004 120.385 96.4805 120.255 96.4805 119.885C96.5304 117.467 96.5204 115.069 96.5204 112.66ZM99.5182 109.952C99.5182 110.522 99.5182 111.082 99.5182 111.641C99.5182 112.011 99.6081 112.161 100.008 112.151C101.007 112.151 102.006 112.151 102.926 112.151C104.365 112.151 105.044 111.551 105.124 110.152C105.204 108.753 104.684 107.824 103.026 107.814C102.026 107.814 101.027 107.814 100.028 107.814C99.6581 107.814 99.4982 107.914 99.5182 108.314C99.5382 108.833 99.5082 109.393 99.5082 109.952H99.5182Z" fill="#684A75"/>
<path d="M88.4681 116.686C89.0077 114.867 89.5173 113.159 90.0169 111.45C90.6165 109.451 91.2127 107.43 91.8056 105.384C91.8229 105.266 91.8862 105.16 91.9818 105.089C92.0774 105.018 92.1973 104.988 92.3152 105.005H94.5535C95.0931 105.005 95.1031 105.005 94.9432 105.514L91.7556 115.087C91.226 116.706 90.6864 118.315 90.1768 119.933C90.1658 120.005 90.1408 120.074 90.1032 120.136C90.0656 120.198 90.0161 120.251 89.9576 120.294C89.8991 120.337 89.8327 120.368 89.7623 120.385C89.6919 120.402 89.6188 120.404 89.5473 120.393C88.7878 120.393 88.0284 120.393 87.269 120.393C87.1384 120.411 87.0059 120.379 86.8983 120.303C86.7907 120.227 86.7161 120.112 86.6894 119.983C85.1106 115.167 83.5284 110.351 81.943 105.534C81.7731 105.025 81.7931 105.015 82.3127 105.005C83.0322 105.005 83.7516 105.005 84.4711 105.005C84.8308 105.005 84.9807 105.125 85.0806 105.464C86.1498 109.092 87.239 112.709 88.3182 116.336C88.3781 116.416 88.4081 116.486 88.4681 116.686Z" fill="#684A75"/>
<path d="M2.82123 112.665V105.57C2.82123 105.011 2.82123 105.001 3.38081 105.001C5.47923 105.001 7.57766 105.001 9.67608 105.001C10.3263 104.988 10.9719 105.112 11.571 105.365C12.1701 105.618 12.7093 105.995 13.1535 106.47C13.7166 107.098 14.0664 107.889 14.1527 108.728C14.2822 109.385 14.2782 110.062 14.1408 110.718C14.0035 111.374 13.7357 111.995 13.3533 112.545C12.952 113.073 12.4355 113.502 11.8433 113.8C11.2511 114.098 10.5987 114.256 9.93588 114.264C8.40703 114.264 6.86819 114.264 5.33934 114.264C4.91965 114.264 4.76977 114.374 4.77976 114.814C4.77976 116.462 4.77976 118.121 4.77976 119.81C4.77976 120.229 4.65985 120.409 4.23017 120.369C3.93426 120.344 3.63676 120.344 3.34084 120.369C2.94114 120.369 2.79125 120.249 2.80125 119.84C2.80125 118.451 2.80125 117.062 2.80125 115.673L2.82123 112.665ZM4.81973 109.667C4.81973 110.427 4.81973 111.186 4.81973 111.946C4.81973 112.325 4.93964 112.465 5.32935 112.455C6.73829 112.455 8.14723 112.455 9.55617 112.455C11.4248 112.455 12.3141 111.456 12.3541 109.627C12.3931 109.263 12.3517 108.895 12.2328 108.549C12.1138 108.203 11.9202 107.887 11.6657 107.624C11.4111 107.361 11.1019 107.157 10.7598 107.026C10.4177 106.896 10.0512 106.843 9.68607 106.869C8.1872 106.81 6.68832 106.869 5.20944 106.869C4.89967 106.869 4.77976 106.979 4.77976 107.289C4.81973 108.059 4.81973 108.838 4.81973 109.627V109.667Z" fill="#A74FBE"/>
<path d="M76.3078 114.229H72.001C71.7312 114.229 71.5613 114.229 71.6313 114.599C71.727 115.261 71.9952 115.887 72.4091 116.413C72.8231 116.939 73.3681 117.347 73.9895 117.596C74.6103 117.877 75.2958 117.982 75.9721 117.901C76.6484 117.82 77.2897 117.556 77.8266 117.137C78.1657 116.869 78.4391 116.527 78.626 116.137C78.6736 116.028 78.7541 115.937 78.8563 115.876C78.9584 115.815 79.0771 115.788 79.1956 115.798C79.602 115.798 80.0117 115.798 80.4247 115.798C80.8044 115.798 80.8444 115.928 80.7145 116.257C80.4139 117.082 79.9039 117.814 79.2346 118.382C78.5653 118.949 77.7598 119.333 76.8973 119.495C76.122 119.685 75.3161 119.716 74.5285 119.585C73.7409 119.455 72.9882 119.165 72.3161 118.734C71.6441 118.303 71.0667 117.74 70.6191 117.079C70.1715 116.418 69.8632 115.672 69.7127 114.888C69.3841 113.364 69.6626 111.771 70.4891 110.448C71.3155 109.125 72.625 108.177 74.1394 107.804C75.4093 107.534 76.7335 107.708 77.8904 108.297C79.0473 108.886 79.9666 109.855 80.4946 111.041C80.8735 111.922 81.0934 112.862 81.1441 113.819C81.1441 114.199 80.9343 114.219 80.6545 114.219L76.3078 114.229ZM75.3085 112.45H78.5061C78.8459 112.45 78.9258 112.36 78.8159 112.031C78.5813 111.287 78.1157 110.637 77.4868 110.176C76.8579 109.715 76.0984 109.467 75.3185 109.467C74.5387 109.467 73.7792 109.715 73.1502 110.176C72.5213 110.637 72.0558 111.287 71.8212 112.031C71.6813 112.45 71.7012 112.49 72.1509 112.49L75.3085 112.45Z" fill="#A74FBE"/>
<path d="M52.943 109.674C52.943 109.244 52.943 108.854 52.943 108.465C52.943 108.075 53.0529 108.075 53.3227 108.085C53.5925 108.095 54.0322 108.085 54.3819 108.085C54.7317 108.085 54.8416 108.195 54.8316 108.525C54.8316 109.004 54.8316 109.524 54.8316 109.954V118.947C54.8316 119.506 54.8316 119.516 54.272 119.516C52.983 119.516 52.983 119.516 52.953 118.267C52.9598 118.141 52.9598 118.014 52.953 117.888C52.6532 118.197 52.3934 118.467 52.1037 118.717C51.1944 119.41 50.0807 119.781 48.9375 119.772C47.7943 119.763 46.6866 119.374 45.7884 118.667C44.9759 118.052 44.3281 117.245 43.903 116.319C43.4778 115.393 43.2885 114.376 43.3518 113.359C43.4151 112.342 43.7291 111.357 44.2659 110.49C44.8026 109.624 45.5454 108.904 46.4279 108.395C47.383 107.814 48.5079 107.576 49.6164 107.721C50.7249 107.867 51.7504 108.386 52.5233 109.194C52.6033 109.344 52.7831 109.454 52.943 109.674ZM52.8631 113.671C52.8745 112.625 52.4888 111.615 51.7839 110.843C51.2758 110.262 50.5945 109.861 49.8406 109.697C49.0867 109.533 48.3002 109.616 47.597 109.934C47.0327 110.228 46.5402 110.643 46.1546 111.149C45.7689 111.655 45.4997 112.24 45.3661 112.862C45.2325 113.484 45.2378 114.128 45.3816 114.748C45.5254 115.368 45.8042 115.949 46.1981 116.449C46.4869 116.827 46.8482 117.145 47.261 117.382C47.6737 117.62 48.1296 117.773 48.6021 117.832C49.0746 117.892 49.5543 117.857 50.0131 117.729C50.4718 117.601 50.9006 117.383 51.2743 117.088C51.7939 116.688 52.2096 116.168 52.4861 115.574C52.7627 114.979 52.892 114.326 52.8631 113.671Z" fill="#A74FBE"/>
<path d="M57.9301 109.952C57.9301 108.483 57.9301 106.954 57.9301 105.526C57.9301 105.126 58.07 104.966 58.4697 105.006C58.8694 105.046 59.1392 105.006 59.4689 105.006C59.7987 105.006 59.8986 105.136 59.8886 105.436C59.8886 105.955 59.8886 106.435 59.8886 106.994C59.8886 107.344 60.0085 107.454 60.3583 107.454H66.9733C67.5628 107.454 67.5628 107.454 67.5628 108.044C67.5628 108.313 67.5628 108.573 67.5628 108.843C67.5628 109.113 67.4429 109.343 67.0732 109.333H62.6965C61.9071 109.333 61.1177 109.333 60.3283 109.333C59.9985 109.333 59.8786 109.443 59.8786 109.772C59.8786 111.321 59.8786 112.87 59.8786 114.409C59.8674 114.99 60.0388 115.56 60.3687 116.039C60.6985 116.517 61.1702 116.88 61.7172 117.077C62.1677 117.274 62.6614 117.352 63.1507 117.302C63.64 117.253 64.1082 117.078 64.5101 116.795C64.912 116.511 65.234 116.129 65.4449 115.685C65.6559 115.241 65.7486 114.75 65.7142 114.259C65.7142 113.14 65.5743 113.26 66.7135 113.26C67.8526 113.26 67.7127 113.1 67.7127 114.259C67.7505 115.215 67.4925 116.16 66.974 116.965C66.4554 117.77 65.7015 118.395 64.8149 118.756C63.8793 119.151 62.8454 119.252 61.8511 119.045C60.8567 118.838 59.949 118.333 59.2491 117.596C58.4165 116.68 57.9692 115.477 58 114.239C57.9201 112.82 57.9301 111.391 57.9301 109.952Z" fill="#A74FBE"/>
<path d="M37.2771 116.473L38.0565 114.265C38.766 112.266 39.4754 110.208 40.1649 108.17C40.1793 108.092 40.2089 108.018 40.2518 107.952C40.2948 107.886 40.3503 107.829 40.4153 107.785C40.4802 107.74 40.5533 107.709 40.6304 107.693C40.7075 107.676 40.787 107.675 40.8644 107.69C41.2305 107.71 41.5975 107.71 41.9636 107.69C42.2833 107.69 42.3633 107.78 42.2534 108.08C41.8537 109.149 41.4739 110.218 41.0842 111.287C40.2049 113.715 39.3056 116.144 38.4462 118.582C38.4307 118.667 38.3983 118.748 38.351 118.82C38.3037 118.893 38.2424 118.955 38.1708 119.003C38.0991 119.052 38.0185 119.085 37.9337 119.102C37.8488 119.119 37.7615 119.119 37.6768 119.101C37.2975 119.076 36.917 119.076 36.5377 119.101C36.4258 119.113 36.3135 119.083 36.2229 119.017C36.1323 118.95 36.0699 118.852 36.048 118.742C34.7623 115.191 33.47 111.644 32.1709 108.1C32.061 107.8 32.1709 107.68 32.4507 107.69H33.6798C33.8042 107.67 33.9317 107.699 34.0345 107.772C34.1374 107.845 34.2074 107.955 34.2294 108.08C34.779 109.688 35.3486 111.287 35.9081 112.896L37.1572 116.463L37.2771 116.473Z" fill="#A74FBE"/>
<path d="M18.3904 109.026C19.1341 108.272 20.1227 107.808 21.1783 107.717C22.1364 107.587 23.1098 107.797 23.9294 108.31C24.749 108.823 25.3631 109.607 25.6649 110.525C25.9145 111.303 26.0261 112.118 25.9947 112.933C25.9947 113.213 25.8848 113.343 25.595 113.333H24.4159C24.1461 113.333 24.0362 113.223 24.0362 112.963C24.048 112.556 24.0246 112.148 23.9662 111.744C23.9227 111.398 23.8095 111.065 23.6334 110.764C23.4573 110.463 23.2221 110.201 22.9419 109.994C22.6616 109.786 22.3423 109.638 22.0031 109.558C21.6639 109.477 21.3119 109.466 20.9685 109.526C20.3017 109.569 19.674 109.855 19.2043 110.331C18.7346 110.806 18.4557 111.437 18.4204 112.104C18.4204 114.292 18.4204 116.481 18.4204 118.669C18.4204 118.809 18.4204 118.959 18.4204 119.099C18.4255 119.14 18.421 119.182 18.4071 119.222C18.3932 119.261 18.3703 119.297 18.3403 119.326C18.3102 119.355 18.2738 119.377 18.234 119.389C18.1941 119.402 18.1519 119.405 18.1106 119.399H16.7516C16.5118 119.399 16.4219 119.279 16.4219 119.059C16.4219 118.839 16.4219 118.519 16.4219 118.259V108.567C16.4219 108.007 16.4219 107.997 16.9815 107.997H17.0314C17.389 107.941 17.753 107.941 18.1106 107.997C18.5203 108.197 18.1706 108.687 18.3904 109.026Z" fill="#A74FBE"/>
<path d="M28.2738 113.349C28.2738 111.64 28.2738 109.932 28.2738 108.213C28.2738 107.813 28.4037 107.653 28.8034 107.683C29.1562 107.703 29.5098 107.703 29.8626 107.683C30.1324 107.683 30.2423 107.793 30.2323 108.063C30.2223 108.333 30.2323 108.313 30.2323 108.443V118.545C30.2323 119.125 30.2323 119.125 29.6428 119.125C29.353 119.125 29.0532 119.125 28.7634 119.125C28.4736 119.125 28.2638 118.995 28.2738 118.635C28.2838 116.886 28.2738 115.138 28.2738 113.349Z" fill="#A74FBE"/>
<path d="M30.232 118.222C30.232 119.361 30.232 119.361 29.0928 119.361C28.2734 119.361 28.2734 119.361 28.2734 118.532C28.2734 118.162 28.2734 117.802 28.2734 117.432C28.2734 117.063 28.3933 117.053 28.6631 117.063C28.9329 117.073 29.4426 117.063 29.8423 117.063C30.242 117.063 30.242 117.183 30.232 117.462C30.222 117.742 30.232 117.972 30.232 118.222Z" fill="#A74FBE"/>
<path d="M63.7136 13.8535L83.3499 18.0246L86.3138 23.8091L85.1067 49.9112L75.0077 62.9502L63.9765 68.7467L50.6625 62.8188L41.9141 46.003L42.0455 19.901L63.7136 13.8535Z" fill="white"/>
<path d="M93.4266 47.6065C91.2634 48.3356 89.2077 49.0646 87.3672 49.5905C87.4748 46.4592 87.6899 43.2442 87.7974 40.0293C90.0802 40.1249 93.7732 44.8099 93.4266 47.6065Z" fill="#684A75"/>
<path d="M40.435 39.1562C39.7538 42.7417 38.8693 46.1479 40.435 49.5779C38.3793 48.7533 36.4193 48.0243 34.3636 47.2952C34.1605 44.2595 37.7937 39.5746 40.435 39.1562Z" fill="#684A75"/>
<path d="M57.8244 34.7105C57.8147 33.2054 58.3021 31.7393 59.2107 30.5394C60.1334 29.3264 61.4186 28.4389 62.8798 28.0057C64.3043 27.6949 65.7915 27.863 67.1107 28.4838C68.421 29.0952 69.4865 30.1312 70.1344 31.4238C70.8065 32.7602 71.0166 34.2817 70.732 35.7503C70.4424 37.2244 69.6784 38.5634 68.5568 39.5628C68.2463 39.7849 67.9958 40.0806 67.8278 40.4233C67.6618 40.7649 67.5877 41.1439 67.6126 41.5229C67.7202 43.5811 67.7202 45.6435 67.6126 47.7018C67.6585 48.1602 67.6139 48.6231 67.4812 49.0642C67.3345 49.5059 67.0985 49.9127 66.788 50.2594C66.4668 50.5941 66.0857 50.8657 65.6645 51.0601C65.2331 51.2494 64.7672 51.3471 64.2961 51.3471C63.825 51.3471 63.359 51.2494 62.9277 51.0601C62.503 50.8718 62.1208 50.5994 61.8042 50.2594C61.4937 49.9127 61.2577 49.5059 61.111 49.0642C60.9724 48.6243 60.9276 48.1601 60.9796 47.7018C60.9796 45.5385 60.9796 43.3753 60.872 41.1045C60.8139 40.6078 60.5909 40.1449 60.2386 39.7899C59.4852 39.1779 58.877 38.4064 58.4578 37.5311C58.0346 36.6641 57.8178 35.711 57.8244 34.7464V34.7105Z" fill="#5A5261"/>
<path d="M65.5548 12.3007C68.3812 12.7604 71.1755 13.3991 73.9209 14.2129L81.3069 15.7666C83.2414 16.1661 84.9721 17.2372 86.1926 18.7902C87.4132 20.3433 88.0449 22.2781 87.9758 24.2522V37.5661C87.9376 37.866 88.0145 38.1692 88.191 38.4147C88.3722 38.6537 88.6367 38.8158 88.9319 38.8688C90.3213 39.3778 91.5554 40.2373 92.5145 41.3639C93.4736 42.4905 94.1251 43.846 94.4057 45.2987C94.4387 45.6436 94.5859 45.9675 94.824 46.219C95.0583 46.469 95.3698 46.6332 95.7084 46.6851C102.401 48.693 106.572 56.5212 104.302 62.9511C102.999 66.5365 100.31 68.7595 97.1307 70.6C92.1825 73.326 86.8011 75.1778 81.2232 76.0738C73.935 77.3868 66.5232 77.8839 59.1249 77.5558C50.5199 77.2092 42.0821 75.9902 34.0268 72.5959C30.7799 71.3237 27.845 69.3671 25.4218 66.8592C21.5136 62.6045 21.8363 56.7841 24.5613 52.3501C26.2229 49.6023 28.8608 47.5833 31.9473 46.6971C32.4612 46.5178 32.7241 46.3505 32.8197 45.741C33.0886 44.1057 33.8201 42.5816 34.9278 41.3489C36.0355 40.1163 37.473 39.2266 39.0704 38.7852C39.7635 38.5223 39.8592 38.2713 39.8592 37.59V24.2522C39.7425 22.2119 40.3886 20.2012 41.6719 18.6108C42.9553 17.0205 44.7841 15.9641 46.803 15.6471C51.9062 14.691 56.6868 13.5795 61.6467 12.5397C62.051 12.4814 62.4504 12.3935 62.8419 12.2768C63.7397 12.1812 64.6451 12.1812 65.5429 12.2768L65.5548 12.3007ZM84.6772 33.5026C84.6772 30.3833 84.7609 27.2401 84.6772 24.1207C84.7397 22.8668 84.34 21.6336 83.5538 20.6548C82.7718 19.6632 81.6455 19.002 80.3986 18.8023C76.2275 17.9298 72.0325 16.9737 67.969 16.1013C66.092 15.4955 64.1028 15.3199 62.1487 15.5874L47.4722 18.7067C44.341 19.4118 42.9546 21.097 42.9546 24.3597V41.9165C42.9488 45.2027 43.7708 48.4375 45.3449 51.3223C49.002 58.1824 54.8224 62.6164 61.6945 65.8314C62.4407 66.1844 63.2597 66.3564 64.0848 66.3334C64.9231 66.301 65.7419 66.0717 66.4751 65.6641C71.2811 63.4047 75.5694 60.1783 79.072 56.1866C82.7171 52.2005 84.7195 46.9831 84.6772 41.5818V33.5026ZM39.9189 40.1955C37.5286 40.5421 34.3495 44.4502 34.5288 46.972C36.3454 47.5815 38.1142 48.1671 39.9189 48.8842C38.5684 46.0039 39.3094 43.1236 39.9189 40.1716V40.1955ZM92.5772 47.0556C92.8401 44.7968 89.8881 40.8886 88.0595 40.7213C87.9758 43.4104 87.8085 46.0995 87.7129 48.7169C89.1949 48.203 90.8442 47.5217 92.5772 47.0556Z" fill="#A84DBE"/>
<path d="M81.8104 33.4793V41.2239C81.7912 46.454 79.7332 51.4705 76.0737 55.2072C73.1834 58.1851 69.8393 60.6861 66.1659 62.6171C65.556 63.0372 64.8385 63.2736 64.0983 63.2983C63.364 63.3315 62.6351 63.1576 61.9949 62.7963C57.1186 60.1909 52.6966 57.0596 49.4816 52.4464C47.0981 49.1043 45.8422 45.0894 45.8962 40.9849C45.8962 35.2482 46.0755 29.5115 46.0755 23.7747C46.0391 23.3472 46.1626 22.9213 46.4221 22.5796C46.6815 22.2484 47.0499 22.0198 47.4618 21.9342C52.589 20.7391 57.7162 19.5439 62.939 18.6117C64.3132 18.5006 65.6961 18.6506 67.0145 19.0539C71.1019 19.8308 75.1056 20.7869 79.0974 21.6593C80.8424 22.0059 81.4877 22.1732 81.6192 24.695C81.8821 27.647 81.7985 30.5154 81.7985 33.4674L81.8104 33.4793ZM56.2581 35.4752C56.1981 36.5077 56.3527 37.5413 56.7123 38.5109C57.0727 39.4837 57.6256 40.3739 58.3377 41.1283C58.5942 41.4716 58.7173 41.8962 58.6843 42.3235C58.7799 44.0564 58.6843 45.9089 58.9472 47.618C59.4731 51.2751 62.7717 53.0081 66.2496 52.052C67.3107 51.6893 68.2366 51.0129 68.9047 50.1122C69.5727 49.2115 69.9513 48.1291 69.9904 47.0084V42.3474C70.0032 41.9134 70.1539 41.4948 70.4207 41.1522C71.4726 39.9981 72.1842 38.575 72.4763 37.0409C72.764 35.496 72.6107 33.9014 72.0341 32.4396C71.3928 30.4682 70.0118 28.8224 68.1819 27.8483C66.3519 26.8742 64.2154 26.6479 62.2219 27.2168C60.4455 27.7262 58.8912 28.8168 57.8078 30.314C56.7245 31.8112 56.1746 33.6286 56.2462 35.4752H56.2581Z" fill="#F7EFD6"/>
<path d="M56.2575 35.4745C56.1859 33.6278 56.7357 31.8105 57.8191 30.3132C58.9025 28.816 60.4567 27.7254 62.2332 27.216C64.2252 26.6444 66.3613 26.8697 68.1902 27.8443C70.019 28.819 71.3972 30.4665 72.0334 32.4388C72.6132 33.8915 72.7666 35.4794 72.4756 37.0162C72.1775 38.5556 71.4528 39.9802 70.3841 41.1275C70.1061 41.4638 69.954 41.8864 69.9539 42.3227C69.8702 43.8883 69.9539 45.442 69.9539 47.0077C69.9139 48.1295 69.5351 49.213 68.8674 50.1154C68.1996 51.0179 67.2742 51.6969 66.2131 52.0631C62.7352 53.0073 59.4366 51.358 58.9107 47.6291C58.6478 45.8962 58.7434 44.0437 58.6478 42.3227C58.6819 41.8953 58.5587 41.4703 58.3012 41.1275C57.5951 40.3707 57.0467 39.481 56.6877 38.5101C56.3251 37.537 56.1665 36.4996 56.2216 35.4625L56.2575 35.4745ZM59.0422 35.4745C59.0677 36.3076 59.2744 37.1252 59.648 37.8703C60.0216 38.6154 60.553 39.2701 61.2054 39.789C61.5152 40.0844 61.7028 40.4853 61.7313 40.9124C61.8149 42.741 61.7313 44.5695 61.8149 46.4818C61.7891 46.8669 61.842 47.2532 61.9703 47.6172C62.0919 47.9861 62.2916 48.3245 62.5559 48.6092C62.8165 48.8928 63.1288 49.124 63.4762 49.2904C63.8296 49.4497 64.2119 49.5351 64.5996 49.5414C64.9752 49.5316 65.3447 49.4447 65.6852 49.2859C66.0257 49.1272 66.3299 48.9 66.5788 48.6186C66.8277 48.3372 67.016 48.0076 67.1319 47.6502C67.2479 47.2929 67.2891 46.9155 67.2528 46.5415V41.3307C67.2296 41.0108 67.2871 40.6903 67.4202 40.3985C67.563 40.1072 67.7767 39.8566 68.0416 39.6694C68.9699 38.8196 69.5983 37.6923 69.8331 36.4559C70.0679 35.2194 69.8964 33.9402 69.3443 32.8093C68.8134 31.731 67.9358 30.8623 66.8523 30.3422C65.7688 29.8221 64.542 29.6808 63.3686 29.9409C62.1162 30.2176 60.9989 30.9207 60.2075 31.93C59.4162 32.9394 59 34.1923 59.0302 35.4745H59.0422Z" fill="#EBD7D2"/>
<path opacity="0.2" d="M62.1371 89.2692C84.0842 89.2692 101.876 87.8138 101.876 86.0184C101.876 84.223 84.0842 82.7676 62.1371 82.7676C40.1901 82.7676 22.3984 84.223 22.3984 86.0184C22.3984 87.8138 40.1901 89.2692 62.1371 89.2692Z" fill="#612E77"/>
</svg>
