<?xml version="1.0" encoding="utf-8"?>
<!-- Generator: Adobe Illustrator 27.0.1, SVG Export Plug-In . SVG Version: 6.00 Build 0)  -->
<svg version="1.1" id="Layer_1" xmlns="http://www.w3.org/2000/svg" xmlns:xlink="http://www.w3.org/1999/xlink" x="0px" y="0px"
	 viewBox="0 0 300 300" style="enable-background:new 0 0 300 300;" xml:space="preserve">
<style type="text/css">
	.st0{fill:#001219;}
	.st1{fill:#3B108E;}
	.st2{fill:#6536CC;}
	.st3{fill:#8260EF;}
	.st4{fill:#FFFFFF;}
</style>
<g>
	<path class="st0" d="M5.2,230.7H14v5.7h0.2c1.3-2.5,3.1-4.2,5.5-5.2c2.3-1.1,4.9-1.6,7.6-1.6c3.3,0,6.2,0.6,8.7,1.7
		c2.5,1.2,4.5,2.8,6.2,4.8c1.6,2.1,2.8,4.4,3.7,7.1c0.8,2.7,1.2,5.6,1.2,8.7c0,2.8-0.4,5.6-1.1,8.2c-0.7,2.7-1.9,5-3.3,7
		c-1.5,2.1-3.4,3.7-5.7,4.9c-2.3,1.2-5,1.9-8.1,1.9c-1.3,0-2.7-0.1-4.1-0.4c-1.3-0.3-2.7-0.6-3.9-1.2c-1.2-0.6-2.4-1.2-3.4-2.1
		c-1.1-0.8-2-1.9-2.6-3h-0.2v21H5.3L5.2,230.7L5.2,230.7z M37.6,251.8c0-1.9-0.3-3.8-0.7-5.6c-0.5-1.8-1.2-3.4-2.2-4.8
		s-2.2-2.5-3.7-3.3c-1.5-0.8-3.1-1.3-5-1.3c-3.9,0-6.8,1.3-8.9,4.1c-2,2.7-3,6.3-3,10.8c0,2.1,0.3,4.1,0.8,5.9
		c0.5,1.8,1.3,3.4,2.3,4.7c1,1.3,2.3,2.3,3.7,3.1c1.4,0.8,3.1,1.1,5,1.1c2.1,0,3.9-0.4,5.4-1.3c1.5-0.9,2.7-2,3.6-3.4
		c0.9-1.4,1.6-3,2.1-4.7C37.4,255.4,37.6,253.6,37.6,251.8z"/>
	<path class="st0" d="M90.1,272.8H81V267h-0.2c-1.1,2.1-2.8,3.8-5.1,5.1c-2.3,1.3-4.5,1.9-6.9,1.9c-5.6,0-9.6-1.4-12-4.1
		c-2.5-2.7-3.7-6.9-3.7-12.4v-26.7h9.3v25.8c0,3.7,0.7,6.3,2.1,7.8c1.4,1.5,3.4,2.3,6,2.3c2,0,3.6-0.3,4.9-0.9
		c1.3-0.6,2.4-1.4,3.2-2.4c0.8-1,1.4-2.2,1.7-3.6c0.4-1.4,0.5-2.9,0.5-4.6v-24.4h9.3L90.1,272.8L90.1,272.8z"/>
	<path class="st0" d="M99.9,230.7h8.7v8.1h0.2c0.3-1.1,0.8-2.3,1.6-3.3c0.8-1.1,1.7-2.1,2.8-3c1.1-0.9,2.4-1.6,3.7-2.2
		c1.3-0.6,2.7-0.8,4.2-0.8c1.1,0,1.9,0.1,2.3,0.1c0.4,0.1,0.8,0.1,1.3,0.2v8.9c-0.7-0.1-1.3-0.2-2-0.3c-0.7-0.1-1.3-0.1-2-0.1
		c-1.6,0-3,0.3-4.4,0.9c-1.4,0.6-2.6,1.5-3.6,2.8c-1,1.2-1.9,2.7-2.5,4.5c-0.6,1.8-0.9,3.9-0.9,6.2v20.1h-9.3L99.9,230.7L99.9,230.7
		z"/>
	<path class="st0" d="M134.4,254.2c0,1.6,0.2,3.2,0.7,4.7c0.5,1.5,1.1,2.8,2.1,4c0.9,1.1,2.1,2.1,3.5,2.7c1.4,0.7,3.1,1,5,1
		c2.7,0,4.9-0.6,6.5-1.7c1.6-1.2,2.9-2.9,3.7-5.2h8.8c-0.5,2.3-1.3,4.3-2.5,6.1c-1.2,1.8-2.6,3.3-4.3,4.5c-1.7,1.2-3.6,2.2-5.7,2.8
		c-2.1,0.6-4.3,0.9-6.5,0.9c-3.3,0-6.2-0.6-8.8-1.6c-2.6-1.1-4.7-2.6-6.5-4.6c-1.7-2-3.1-4.3-4-7c-0.9-2.7-1.3-5.7-1.3-8.9
		c0-3,0.5-5.8,1.4-8.5c0.9-2.7,2.3-5,4.1-7.1c1.7-2.1,3.9-3.7,6.4-4.8c2.5-1.2,5.3-1.8,8.5-1.8c3.3,0,6.3,0.7,8.9,2.1
		c2.6,1.4,4.8,3.2,6.6,5.5c1.8,2.3,3,4.9,3.8,7.9c0.8,3,1,6,0.6,9.2H134.4z M156.1,248.1c-0.1-1.5-0.4-2.9-0.9-4.2
		c-0.5-1.3-1.2-2.5-2.1-3.5c-0.9-1-2-1.8-3.2-2.5c-1.3-0.6-2.7-0.9-4.3-0.9c-1.6,0-3.1,0.3-4.4,0.9c-1.3,0.6-2.5,1.3-3.4,2.4
		c-0.9,1-1.7,2.2-2.3,3.5c-0.6,1.3-0.9,2.8-0.9,4.4L156.1,248.1L156.1,248.1z"/>
	<path class="st0" d="M173.4,230.8l13.2,36.9h0.2l13-36.9h5.3l-15.7,42h-5.5l-16.2-42H173.4z"/>
	<path class="st0" d="M214.9,230.8v8h0.2c1.2-2.9,3.1-5.2,5.8-6.8c2.7-1.6,5.8-2.4,9.2-2.4c3.2,0,6,0.6,8.3,1.8
		c2.4,1.2,4.3,2.8,5.9,4.8c1.6,2.1,2.7,4.4,3.5,7.1c0.8,2.7,1.1,5.5,1.1,8.5c0,3-0.4,5.8-1.1,8.5c-0.8,2.7-1.9,5-3.5,7.1
		c-1.6,2.1-3.6,3.7-5.9,4.8c-2.4,1.2-5.1,1.7-8.3,1.7c-1.5,0-3-0.2-4.6-0.6c-1.5-0.4-2.9-0.9-4.2-1.7c-1.3-0.8-2.5-1.7-3.4-2.8
		c-1-1.1-1.8-2.5-2.3-4h-0.2v23.4h-5.1v-57.5H214.9z M243,245.3c-0.5-2.2-1.3-4.1-2.5-5.8c-1.1-1.7-2.5-3-4.3-4.1
		c-1.7-1.1-3.8-1.6-6.3-1.6c-2.8,0-5.2,0.5-7.1,1.5c-1.9,1-3.4,2.3-4.6,3.9c-1.1,1.6-2,3.5-2.4,5.7c-0.5,2.2-0.7,4.5-0.7,6.8
		c0,2.2,0.3,4.3,0.8,6.5c0.5,2.2,1.3,4.1,2.5,5.8c1.2,1.7,2.7,3,4.6,4.1c1.9,1.1,4.2,1.6,6.9,1.6c2.5,0,4.5-0.5,6.3-1.6
		c1.8-1.1,3.1-2.4,4.3-4.1c1.1-1.7,1.9-3.6,2.5-5.8c0.5-2.2,0.8-4.3,0.8-6.5C243.8,249.6,243.6,247.5,243,245.3z"/>
	<path class="st0" d="M262,230.8v7.2h0.2c1-2.6,2.7-4.6,5.2-6.2c2.5-1.5,5.2-2.3,8.2-2.3c2.9,0,5.4,0.4,7.4,1.1
		c2,0.8,3.6,1.9,4.8,3.2c1.2,1.4,2.1,3.1,2.5,5.1c0.5,2,0.7,4.3,0.7,6.7v27h-5.1v-26.2c0-1.8-0.2-3.4-0.5-5c-0.3-1.5-0.9-2.9-1.7-4
		c-0.8-1.1-1.9-2.1-3.3-2.7c-1.4-0.7-3.1-1-5.2-1c-2.1,0-3.9,0.4-5.5,1.1c-1.6,0.7-3,1.7-4.1,3c-1.1,1.3-2,2.8-2.6,4.6
		c-0.6,1.7-1,3.7-1,5.8v24.5h-5.1v-42h5.2V230.8z"/>
	<g>
		<path class="st1" d="M146.9,208.6c54.4,0,98.6-44.1,98.6-98.5c0-54.4-44.1-98.5-98.6-98.5s-98.6,44.1-98.6,98.5
			C48.4,164.5,92.5,208.6,146.9,208.6z"/>
		<path class="st2" d="M148,32.5c8.2-0.4,16.2,0.1,23.8,1.7C185.2,37,198,43,206.7,53.9c12.3,15.4,17.3,34.8,16,55.5
			c-1.5,26.5-14.6,50.2-34.3,65.3c-11.4,8.7-25.5,14.5-41.1,14.5c-22.7,0.1-41.6-13-55.3-28.4c-13-14.5-21.5-33.5-22.7-54
			c0-0.2,0-0.5-0.1-0.7c-0.2-5.3,0.2-10.5,1.4-15.6c3.5-15.1,12.7-27.3,23.8-36.8C108.9,41.4,127.6,33.6,148,32.5z"/>
		<path class="st3" d="M149.1,53.5c6.2-0.8,12.3-1.3,18.2-1c10.3,0.5,21.2,3.1,27.2,12.7c8.2,13.2,7.9,28.2,5.4,43.6
			c-2.9,18.5-11.4,35.7-24.1,48.1c-7.3,7.1-16.9,12.9-28.2,13c-16.9,0.1-29.4-14.1-38.9-25.7c-9.4-11.5-16.3-25.6-18.6-40.6
			c0-0.2-0.1-0.3-0.1-0.6c-0.5-3.7-0.5-7.5,0.5-11.2c2.8-10.9,11.2-18,19.7-23.7C121.4,60.7,134.8,55.4,149.1,53.5z"/>
		<path class="st4" d="M111,100.4c3.7,9.5,8.9,18.8,14.6,27.2c5.3,7.8,11.2,23.1,22.4,23c7-0.1,12-5.8,15.2-11.4
			c5.7-9.8,9.7-20.4,13.9-31c4-10.1,9.2-20.8,5.2-31.7c-3.1-8.3-12.3-7.6-19.5-5.8c-4.2,1.1-8.5,2.4-12.7,3.7
			c-8.1,2.5-16,5.6-24.1,8.3c-5.8,2-13.5,3.9-15.6,10.5c-0.7,2.2-0.3,4.5,0.5,6.7C111,100.1,111,100.2,111,100.4z"/>
	</g>
</g>
</svg>
