<?xml version="1.0" encoding="UTF-8"?>
<svg width="12px" height="8px" viewBox="0 0 12 8" version="1.1" xmlns="http://www.w3.org/2000/svg" xmlns:xlink="http://www.w3.org/1999/xlink">
    <!-- Generator: Sketch 43.1 (39012) - http://www.bohemiancoding.com/sketch -->
    <title>Assets/Icons/quote-end</title>
    <desc>Created with Sketch.</desc>
    <defs></defs>
    <g id="Symbols" stroke="none" stroke-width="1" fill="none" fill-rule="evenodd">
        <g id="Assets/Icons/quote-end" fill-rule="nonzero" fill="#B2B8C0">
            <path d="M9.49443207,5.09090909 C8.11679287,5.09090909 7,3.95125 7,2.54545455 C7,1.13965909 8.11679287,0 9.49443207,0 C10.8720713,0 11.9888641,1.13965909 11.9888641,2.54545455 L12,2.90909091 C12,5.72072727 9.76641425,8 7.01113586,8 L7.01113586,6.54545455 C7.96296214,6.54545455 8.85783964,6.16720455 9.53089087,5.48038636 C9.66044543,5.34815909 9.77868597,5.20747727 9.88534521,5.05970455 C9.75797327,5.08015909 9.62743875,5.09090909 9.49443207,5.09090909 Z M2.49443207,5.09090909 C1.11681514,5.09090909 0,3.95125 0,2.54545455 C0,1.13965909 1.11681514,0 2.49443207,0 C3.872049,0 4.98886414,1.13965909 4.98886414,2.54545455 L5,2.90909091 C5,5.72072727 2.76643653,8 0.0111358575,8 L0.0111358575,6.54545455 C0.962939866,6.54545455 1.85786192,6.16720455 2.53089087,5.48038636 C2.66046771,5.34815909 2.77870824,5.20747727 2.88536748,5.05970455 C2.75799555,5.08015909 2.62746102,5.09090909 2.49443207,5.09090909 Z" id="Shape"></path>
        </g>
    </g>
</svg>