<?xml version="1.0" encoding="UTF-8"?>
<svg width="12px" height="8px" viewBox="0 0 12 8" version="1.1" xmlns="http://www.w3.org/2000/svg" xmlns:xlink="http://www.w3.org/1999/xlink">
    <!-- Generator: Sketch 43.1 (39012) - http://www.bohemiancoding.com/sketch -->
    <title>Assets/Icons/quote-start</title>
    <desc>Created with Sketch.</desc>
    <defs></defs>
    <g id="Symbols" stroke="none" stroke-width="1" fill="none" fill-rule="evenodd">
        <g id="Assets/Icons/quote-start" fill-rule="nonzero" fill="#B2B8C0">
            <path d="M2.50556793,2.90909091 C3.88320713,2.90909091 5,4.04875 5,5.45454545 C5,6.86034091 3.88320713,8 2.50556793,8 C1.12792873,8 0.0111358575,6.86034091 0.0111358575,5.45454545 L0,5.09090909 C0,2.27927273 2.23358575,0 4.98886414,0 L4.98886414,1.45454545 C4.03703786,1.45454545 3.14216036,1.83279545 2.46910913,2.51961364 C2.33955457,2.65184091 2.22131403,2.79252273 2.11465479,2.94029545 C2.24202673,2.91984091 2.37256125,2.90909091 2.50556793,2.90909091 Z M9.50556793,2.90909091 C10.8831849,2.90909091 12,4.04875 12,5.45454545 C12,6.86034091 10.8831849,8 9.50556793,8 C8.127951,8 7.01113586,6.86034091 7.01113586,5.45454545 L7,5.09090909 C7,2.27927273 9.23356347,0 11.9888641,0 L11.9888641,1.45454545 C11.0370601,1.45454545 10.1421381,1.83279545 9.46910913,2.51961364 C9.33953229,2.65184091 9.22129176,2.79252273 9.11463252,2.94029545 C9.24200445,2.91984091 9.37253898,2.90909091 9.50556793,2.90909091 Z" id="Shape"></path>
        </g>
    </g>
</svg>