<svg width="113" height="103" viewBox="0 0 113 103" fill="none" xmlns="http://www.w3.org/2000/svg">
<path fill-rule="evenodd" clip-rule="evenodd" d="M62.9296 0.535618C84.5574 1.42147 83.6159 1.38291 84.4778 26.8016C85.1391 46.3017 85.4643 52.6567 51.7245 68.3187C20.6951 82.7226 24.1428 70.8605 34.4859 22.5651C38.3261 4.6341 42.2433 -0.31167 62.9296 0.535618Z" fill="#178A9E"/>
<path fill-rule="evenodd" clip-rule="evenodd" d="M41.2056 52.4479V48.8011C41.2056 47.7941 42.036 46.9777 43.0605 46.9777H44.9154C49.0132 46.9777 52.3351 43.7122 52.3351 39.684V28.7436C52.3351 20.6872 58.9789 14.1562 67.1744 14.1562H69.0293C70.0538 14.1562 70.8843 14.9726 70.8843 15.9797V19.6265C70.8843 20.6335 70.0538 21.4499 69.0293 21.4499H67.1744C63.0767 21.4499 59.7547 24.7154 59.7547 28.7436V39.684C59.7547 47.7404 53.1109 54.2714 44.9154 54.2714H43.0605C42.036 54.2714 41.2056 53.455 41.2056 52.4479Z" fill="white"/>
<path d="M6.73113 102.958C4.97107 102.958 3.55367 102.488 2.47888 101.547C1.40409 100.607 0.866699 99.3199 0.866699 97.6866H4.17761C4.17761 98.0512 4.24614 98.3757 4.38319 98.66C4.52025 98.9444 4.70779 99.1741 4.94583 99.3491C5.18387 99.5241 5.45437 99.6553 5.75733 99.7428C6.06029 99.8303 6.37768 99.874 6.70949 99.874C7.37312 99.874 7.94657 99.7136 8.42987 99.3928C8.91316 99.072 9.15481 98.6345 9.15481 98.0804C9.15481 97.847 9.0971 97.6392 8.98168 97.457C8.86627 97.2747 8.73283 97.1288 8.58135 97.0195C8.42987 96.9101 8.19904 96.7971 7.88887 96.6804C7.57869 96.5638 7.31541 96.4763 7.09901 96.4179C6.88261 96.3596 6.55801 96.2794 6.12521 96.1773L5.34617 95.9805C5.17305 95.9367 4.91698 95.8638 4.57795 95.7617C4.23893 95.6596 3.97925 95.5685 3.79892 95.4883C3.61858 95.4081 3.38415 95.2951 3.09561 95.1492C2.80708 95.0034 2.58347 94.8576 2.42478 94.7118C2.26608 94.5659 2.08936 94.3836 1.8946 94.1649C1.69984 93.9462 1.55197 93.7165 1.45098 93.4759C1.34999 93.2353 1.26343 92.9582 1.1913 92.6447C1.11916 92.3311 1.0831 91.9994 1.0831 91.6494C1.0831 90.1911 1.5736 89.061 2.55462 88.2589C3.53563 87.4568 4.8773 87.0558 6.57965 87.0558C8.29643 87.0558 9.63449 87.4933 10.5939 88.3683C11.5532 89.2432 12.0329 90.4463 12.0329 91.9775H8.78693C8.78693 91.3504 8.56692 90.8729 8.12691 90.5447C7.68689 90.2166 7.14229 90.0526 6.49309 90.0526C5.91602 90.0526 5.4147 90.1765 4.98911 90.4244C4.56353 90.6723 4.35073 91.0296 4.35073 91.4963C4.35073 91.715 4.40483 91.9082 4.51303 92.0759C4.62123 92.2436 4.74746 92.3822 4.89173 92.4915C5.036 92.6009 5.25961 92.7103 5.56257 92.8196C5.86553 92.929 6.1216 93.0092 6.33079 93.0603L7.27213 93.2899C7.73378 93.4066 8.08002 93.4977 8.31085 93.5634C8.54168 93.629 8.87348 93.7384 9.30628 93.8915C9.73909 94.0446 10.0745 94.1941 10.3125 94.3399C10.5506 94.4857 10.8283 94.6789 11.1457 94.9196C11.4631 95.1602 11.7047 95.4227 11.8706 95.707C12.0365 95.9914 12.1808 96.3341 12.3034 96.7351C12.426 97.1361 12.4874 97.57 12.4874 98.0366C12.4874 99.1012 12.2205 100.013 11.6867 100.771C11.1529 101.529 10.464 102.083 9.62006 102.433C8.7761 102.783 7.81313 102.958 6.73113 102.958ZM23.7355 101.536C22.7401 102.499 21.4165 102.98 19.7646 102.98C18.1128 102.98 16.7855 102.492 15.7829 101.515C14.7802 100.538 14.2789 99.2543 14.2789 97.6648V90.84H17.4383V97.2929C17.4383 98.1387 17.6439 98.7986 18.0551 99.2725C18.4662 99.7464 19.0361 99.9834 19.7646 99.9834C20.4932 99.9834 21.063 99.7464 21.4742 99.2725C21.8853 98.7986 22.0909 98.1387 22.0909 97.2929V90.84H25.2503V97.6648C25.2503 99.2689 24.7454 100.559 23.7355 101.536ZM29.8334 92.3056C30.6269 91.2994 31.7522 90.7963 33.2093 90.7963H34.0316V93.7274H32.8847C31.9902 93.742 31.3518 93.9607 30.9695 94.3836C30.5872 94.8065 30.3961 95.4992 30.3961 96.4617V102.652H27.2366V90.84H29.2708L29.8334 92.3056ZM43.5918 90.84V93.5087H40.6488V102.652H37.4894V93.5087H35.4769V90.84H37.511V89.9213C37.511 88.7693 37.8284 87.8652 38.4632 87.2089C39.0979 86.5527 40.0212 86.2246 41.2331 86.2246H43.5702V88.7401H41.8606C41.0095 88.7401 40.5839 89.163 40.5839 90.0088V90.84H43.5918ZM50.2091 102.98C49.2425 102.98 48.3877 102.805 47.6447 102.455C46.9018 102.105 46.3247 101.609 45.9135 100.968C45.5024 100.326 45.2968 99.5897 45.2968 98.7585H48.3697C48.3841 99.1085 48.4743 99.4037 48.6402 99.6444C48.8061 99.885 49.0333 100.06 49.3218 100.169C49.6104 100.279 49.9422 100.333 50.3173 100.333C50.6202 100.333 50.8943 100.29 51.1396 100.202C51.3848 100.115 51.5868 99.9798 51.7455 99.7975C51.9042 99.6152 51.9836 99.4001 51.9836 99.1522C51.9836 98.7876 51.796 98.5179 51.4209 98.3429C51.0458 98.1679 50.4832 98.0147 49.733 97.8835C49.2569 97.8106 48.8638 97.7377 48.5536 97.6648C48.2434 97.5918 47.8756 97.4642 47.45 97.282C47.0244 97.0997 46.6854 96.8919 46.4329 96.6586C46.1804 96.4252 45.9604 96.1044 45.7729 95.6961C45.5853 95.2878 45.4916 94.8138 45.4916 94.2743C45.4916 93.166 45.9244 92.2619 46.79 91.5619C47.6556 90.8619 48.7916 90.5119 50.1983 90.5119C51.6049 90.5119 52.7373 90.8729 53.5957 91.5947C54.4541 92.3165 54.8833 93.2681 54.8833 94.4493H51.8754C51.8754 93.516 51.2911 93.0493 50.1225 93.0493C49.632 93.0493 49.2497 93.1514 48.9756 93.3556C48.7015 93.5597 48.5644 93.8368 48.5644 94.1868C48.5644 94.3326 48.6041 94.4675 48.6835 94.5914C48.7628 94.7154 48.8566 94.8138 48.9648 94.8868C49.073 94.9597 49.2425 95.0289 49.4733 95.0946C49.7041 95.1602 49.8989 95.2076 50.0576 95.2367L50.7717 95.368C51.0458 95.4263 51.2406 95.4664 51.356 95.4883C51.4714 95.5102 51.6662 95.5503 51.9403 95.6086C52.2144 95.6669 52.42 95.7216 52.557 95.7727C52.6941 95.8237 52.8816 95.893 53.1197 95.9805C53.3577 96.068 53.538 96.1591 53.6607 96.2539C53.7833 96.3487 53.9348 96.4617 54.1151 96.5929C54.2954 96.7242 54.4361 96.87 54.5371 97.0304C54.6381 97.1908 54.739 97.3658 54.84 97.5554C54.941 97.745 55.0095 97.9637 55.0456 98.2116C55.0817 98.4595 55.0997 98.722 55.0997 98.9991C55.0997 100.209 54.6525 101.176 53.758 101.897C52.8636 102.619 51.6806 102.98 50.2091 102.98ZM63.6429 90.5557C64.9702 90.5557 66.0161 91.0004 66.7807 91.89C67.5453 92.7796 67.9276 93.9753 67.9276 95.4774V102.652H64.7682V96.0023C64.7682 95.1128 64.6059 94.4493 64.2813 94.0118C63.9567 93.5743 63.4409 93.3556 62.734 93.3556C61.9406 93.3556 61.3058 93.6326 60.8297 94.1868C60.3536 94.7409 60.1156 95.4919 60.1156 96.4398V102.652H56.9562V86.5746H60.1156V91.9337C61.0677 91.015 62.2435 90.5557 63.6429 90.5557ZM79.9116 90.8182H82.2703V102.63H79.7817L79.522 101.58C78.4545 102.514 77.1921 102.98 75.735 102.98C73.975 102.98 72.5143 102.386 71.3529 101.197C70.1916 100.009 69.6109 98.5179 69.6109 96.7242C69.6109 94.9451 70.1916 93.4649 71.3529 92.2837C72.5143 91.1025 73.975 90.5119 75.735 90.5119C77.221 90.5119 78.4977 90.9932 79.5653 91.9556L79.9116 90.8182ZM73.7009 99.0428C74.3068 99.6553 75.0678 99.9615 75.9839 99.9615C76.9 99.9615 77.661 99.6553 78.2669 99.0428C78.8728 98.4304 79.1758 97.6575 79.1758 96.7242C79.1758 95.7909 78.8728 95.018 78.2669 94.4055C77.661 93.793 76.9036 93.4868 75.9947 93.4868C75.3888 93.4868 74.8442 93.629 74.3609 93.9134C73.8776 94.1977 73.4989 94.5842 73.2248 95.0727C72.9507 95.5612 72.8136 96.1117 72.8136 96.7242C72.8136 97.6575 73.1094 98.4304 73.7009 99.0428ZM90.043 90.7744H91.0817V93.793H89.7184C88.8239 93.793 88.1856 94.0045 87.8033 94.4274C87.4209 94.8503 87.2298 95.543 87.2298 96.5054V102.652H84.0704V90.84H86.1045L86.6672 92.2837C87.4606 91.2775 88.5859 90.7744 90.043 90.7744ZM103.434 102.652H99.6033L95.8595 97.0085V102.652H92.7001V86.5746H95.8595V96.0898L99.3652 90.84H103.022L99.0623 96.4617L103.434 102.652ZM106.615 87.3273C107.355 86.5922 108.243 86.2246 109.28 86.2246C110.317 86.2246 111.197 86.5892 111.918 87.3183C112.639 88.0474 113 88.9362 113 89.9847C113 90.503 112.902 90.9971 112.705 91.4671C112.508 91.9371 112.246 92.3409 111.918 92.6783C111.59 93.0158 111.197 93.2839 110.738 93.4828C110.279 93.6816 109.793 93.781 109.28 93.781C108.243 93.781 107.358 93.4105 106.624 92.6693C105.891 91.9281 105.524 91.0333 105.524 89.9847C105.524 88.9362 105.888 88.0505 106.615 87.3273ZM109.28 92.7687C109.65 92.7687 110.004 92.6964 110.344 92.5518C110.684 92.4071 110.976 92.2143 111.221 91.9733C111.465 91.7322 111.659 91.437 111.802 91.0875C111.945 90.738 112.016 90.3704 112.016 89.9847C112.016 89.2134 111.751 88.5596 111.221 88.0233C110.69 87.487 110.043 87.2189 109.28 87.2189C108.505 87.2189 107.852 87.487 107.322 88.0233C106.791 88.5596 106.526 89.2134 106.526 89.9847C106.526 90.7681 106.794 91.4279 107.331 91.9642C107.867 92.5006 108.517 92.7687 109.28 92.7687ZM110.854 89.4605C110.854 89.9667 110.651 90.3342 110.246 90.5632L110.979 91.8106H109.942L109.334 90.7259H108.922V91.8106H107.903V88.1228H109.548C109.93 88.1228 110.243 88.2493 110.487 88.5024C110.732 88.7555 110.854 89.0748 110.854 89.4605ZM108.922 89.0447V89.8221H109.441C109.727 89.8221 109.87 89.6925 109.87 89.4334C109.87 89.1743 109.727 89.0447 109.441 89.0447H108.922Z" fill="#222E3A"/>
</svg>
